<svg width="255" height="256" viewBox="0 0 255 256" fill="none" xmlns="http://www.w3.org/2000/svg">
<circle cx="127.75" cy="128.188" r="127.25" fill="#68B984"/>
<path d="M229.36 156.713L228.73 155.47C229.57 155.123 230.587 153.851 230.947 152.339C231.34 150.688 230.775 148.998 229.144 148.609C227.154 148.136 226.494 149.85 225.739 151.52C224.81 153.57 223.17 155.513 220.503 154.879C217.837 154.244 217.211 151.93 217.817 149.383C218.508 146.478 220.118 145.368 221.593 144.647L222.252 145.939C220.327 146.785 219.573 148.098 219.185 149.729C218.707 151.739 219.313 153.166 220.766 153.511C222.895 154.018 223.985 152.175 224.946 149.902C225.84 147.739 227.505 146.748 229.515 147.226C231.377 147.795 233.103 149.552 232.322 152.835C231.815 154.964 230.648 156.158 229.36 156.713Z" fill="white"/>
<path d="M212.981 164.564C214.033 162.167 216.412 161.58 219.034 162.731C219.146 162.78 223.866 164.851 224.054 164.933L223.478 166.244L218.459 164.042C216.679 163.261 214.967 163.448 214.211 165.171C213.504 166.782 214.364 168.387 216.199 169.192L221.219 171.395L220.652 172.687C220.652 172.687 220.652 172.687 220.633 172.679L215.557 170.452L211.437 168.644L212.004 167.352L213.277 167.911C212.489 167.163 212.521 165.613 212.981 164.564Z" fill="white"/>
<path d="M209.686 177.324C208.558 177.584 207.399 178.559 206.723 179.582C205.922 180.794 205.842 181.991 206.575 182.476C207.48 183.074 208.227 182.685 209.712 180.92C210.587 179.856 212.209 178.329 214.103 179.581C216.048 180.867 215.494 182.854 214.4 184.509C213.622 185.687 212.141 186.816 211.12 186.951L210.678 185.727C210.678 185.727 211.585 185.394 212.173 184.95C213.587 183.849 214.638 181.627 213.393 180.804C212.284 180.071 211.471 181.004 210.189 182.535C208.501 184.533 207.003 184.499 205.775 183.688C204.546 182.876 204.04 181.119 205.506 178.901C206.239 177.792 207.164 176.466 209.368 175.913L209.686 177.324Z" fill="white"/>
<path d="M199.935 191.828C198.656 190.68 197.649 191.618 197.149 192.268C196.89 192.036 196.357 191.558 196.114 191.339C197.258 190.003 198.608 188.713 201.013 190.872C201.241 191.077 203.25 192.88 205.214 194.643L206.197 193.547L207.217 194.462L206.233 195.558C207.512 196.706 208.638 197.717 208.638 197.717L207.682 198.782C207.682 198.782 206.556 197.771 205.277 196.624L203.815 198.252L202.795 197.337L204.257 195.708C202.263 193.918 200.072 191.951 199.935 191.828Z" fill="white"/>
<path d="M184.855 201.939L185.941 201.039L186.698 201.953C186.588 200.955 187.27 199.726 188.357 198.826C188.42 198.773 188.562 198.656 188.719 198.525C190.121 197.364 191.964 197.537 192.852 198.608C192.917 198.687 193.021 198.813 193.086 198.892C194.365 200.435 193.919 202.398 191.746 204.199C191.541 204.368 190.218 205.464 189.856 205.764C189.96 205.89 190.234 206.221 190.338 206.347C190.756 206.851 191.845 207.622 193.468 206.278C194.933 205.064 195.062 204.002 195.121 203.368L196.532 203.66C196.248 205.595 195.232 206.676 194.35 207.407C193.279 208.294 191.104 209.484 189.108 207.074C189.108 207.074 185.105 202.21 184.855 201.939ZM188.981 204.709C189.328 204.422 190.478 203.47 190.793 203.209C192.462 201.826 192.913 200.735 192.039 199.68C192.026 199.664 191.987 199.617 191.961 199.585C191.504 199.034 190.528 198.753 189.473 199.628C189.41 199.68 189.331 199.745 189.268 199.797C187.63 201.154 187.442 202.85 188.381 203.984L188.981 204.709Z" fill="white"/>
<path d="M177.832 206.887L179.029 206.14L184.358 214.676L183.16 215.423L177.832 206.887ZM185.522 219.206L186.719 218.458L185.722 216.862L184.525 217.609L185.522 219.206Z" fill="white"/>
<path d="M171.318 222.242C168.927 223.309 166.78 222.161 165.605 219.528C165.563 219.435 163.437 214.672 163.354 214.485L164.661 213.902L166.912 218.944C167.712 220.737 169.124 221.742 170.823 220.984C172.43 220.267 172.855 218.509 172.029 216.66L169.779 211.618L171.067 211.042L175.169 220.232L173.88 220.807L173.338 219.593C173.437 220.668 172.363 221.775 171.318 222.242Z" fill="white"/>
<path d="M148.293 219.263L149.661 218.915L149.954 220.065C150.282 219.116 151.424 218.298 152.792 217.95C152.871 217.929 153.05 217.884 153.248 217.833C155.012 217.385 156.603 218.33 156.947 219.678C156.972 219.777 157.012 219.936 157.037 220.035C157.532 221.977 156.288 223.56 153.553 224.256C153.295 224.322 151.63 224.746 151.175 224.862C151.215 225.02 151.321 225.436 151.361 225.595C151.523 226.229 152.177 227.392 154.219 226.873C156.062 226.403 156.634 225.498 156.959 224.951L158.109 225.819C157.024 227.446 155.642 227.988 154.532 228.27C153.185 228.613 150.71 228.758 149.938 225.725C149.938 225.725 148.404 219.615 148.293 219.263ZM150.837 223.534C151.273 223.423 152.72 223.054 153.116 222.953C155.217 222.419 156.092 221.626 155.754 220.298C155.749 220.278 155.733 220.219 155.723 220.179C155.547 219.486 154.785 218.814 153.457 219.152C153.378 219.172 153.279 219.198 153.199 219.218C151.138 219.742 150.241 221.195 150.604 222.622L150.837 223.534Z" fill="white"/>
<path d="M142.46 235.165L141.054 235.282L140.564 229.412C140.185 230.532 138.908 231.213 137.807 231.305C135.463 231.5 133.396 229.846 133.153 226.932C133.115 226.483 133.105 226.361 133.069 225.933C132.819 222.937 134.857 221.043 136.936 220.869C137.955 220.784 139.216 221.13 139.953 222.095L139.846 220.811L141.252 220.694L142.46 235.165ZM140.348 226.331L140.264 225.332C140.082 223.152 138.519 222.133 137.093 222.252C135.707 222.367 134.316 223.653 134.496 225.814L134.579 226.813C134.746 228.81 135.998 230.04 137.731 229.895C139.422 229.754 140.509 228.267 140.348 226.331Z" fill="white"/>
<path d="M125.247 235.989L123.838 235.917L124.569 221.414L125.979 221.485L125.247 235.989Z" fill="white"/>
<path d="M108.935 221.963L108.012 220.912C109.301 219.721 110.663 219.565 112.331 219.883C114.44 220.286 116.565 222.462 115.997 225.435C115.917 225.857 115.894 225.978 115.813 226.4C115.261 229.293 112.983 230.752 110.572 230.292C108.181 229.835 106.637 227.562 107.174 224.75C107.213 224.549 107.332 223.926 107.382 223.665C107.442 223.676 114.614 225.046 114.614 225.046C114.925 222.982 113.472 221.538 112.066 221.27C110.821 221.032 109.842 221.032 108.935 221.963ZM110.841 228.886C112.568 229.216 113.96 228.253 114.368 226.332L108.522 225.215C108.206 227.091 109.173 228.567 110.841 228.886Z" fill="white"/>
<path d="M86.9903 227.8L85.7012 227.225L91.6122 213.961L92.9012 214.536L86.9903 227.8Z" fill="white"/>
<path d="M76.8308 208.837L76.3481 207.523C77.9799 206.878 79.3071 207.223 80.7476 208.121C82.57 209.258 83.7676 212.053 82.1661 214.622C81.9388 214.986 81.8739 215.09 81.6466 215.455C80.0884 217.954 77.4375 218.494 75.3548 217.196C73.2895 215.908 72.6687 213.231 74.1837 210.802C74.2919 210.628 74.6273 210.09 74.768 209.864C74.8201 209.897 81.0161 213.76 81.0161 213.76C82.0504 211.946 81.2159 210.076 80.001 209.319C78.9249 208.648 78.0118 208.296 76.8308 208.837ZM76.1123 215.981C77.6049 216.912 79.25 216.515 80.3235 214.871L75.273 211.722C74.3013 213.358 74.6718 215.083 76.1123 215.981Z" fill="white"/>
<path d="M58.9461 204.621L57.897 203.677L64.7509 196.06C66.6388 193.962 68.907 194.132 70.7467 195.787C72.0391 196.95 72.5775 198.37 72.3663 199.858L71.0665 199.652C71.1712 198.618 70.8123 197.58 69.8697 196.731C68.5925 195.582 67.1422 195.543 65.9246 196.896L64.6645 198.266C65.7378 197.746 67.1091 198.209 67.9453 198.962C69.6938 200.535 69.8902 203.161 67.9339 205.335C67.633 205.669 67.5646 205.745 67.2773 206.065C65.2663 208.3 62.4918 208.142 60.9409 206.746C60.1655 206.049 59.5558 204.922 59.7669 203.709L58.9461 204.621ZM62.5973 200.533L61.9406 201.263C60.4768 202.89 60.775 204.699 61.8393 205.656C62.8884 206.6 64.7917 206.717 66.2282 205.121L66.8848 204.391C68.2255 202.901 68.2481 201.133 66.9558 199.97C65.7242 198.862 63.8832 199.104 62.5973 200.533Z" fill="white"/>
<path d="M54.1134 184.348L54.987 185.457L54.0554 186.191C55.0558 186.105 56.2677 186.817 57.1414 187.925C57.192 187.99 57.306 188.134 57.4326 188.295C58.5595 189.724 58.3418 191.563 57.2495 192.424C57.1692 192.487 57.0407 192.588 56.9604 192.652C55.3862 193.892 53.4349 193.399 51.6876 191.183C51.523 190.974 50.4595 189.624 50.1682 189.255C50.0397 189.356 49.7024 189.622 49.5739 189.723C49.0599 190.129 48.2632 191.199 49.5673 192.854C50.7449 194.348 51.8042 194.502 52.4362 194.577L52.1098 195.98C50.1829 195.65 49.1267 194.608 48.4176 193.708C47.5567 192.616 46.4194 190.413 48.877 188.476C48.877 188.476 53.8369 184.592 54.1134 184.348ZM51.2444 188.407C51.523 188.76 52.4473 189.933 52.7005 190.254C54.0426 191.957 55.122 192.434 56.1982 191.586C56.2143 191.573 56.2625 191.535 56.2946 191.51C56.8568 191.066 57.1609 190.098 56.3125 189.021C56.2619 188.957 56.1986 188.877 56.1479 188.813C54.8312 187.142 53.1398 186.913 51.9833 187.824L51.2444 188.407Z" fill="white"/>
<path d="M44.3151 173.629L44.1879 172.206C45.9523 172.148 47.3256 173.121 48.1713 174.663C49.2137 176.564 48.7433 179.365 46.0892 180.82C45.7126 181.027 45.605 181.086 45.2284 181.292C42.6459 182.708 40.0323 181.855 38.862 179.721C38.0458 178.233 38.2003 176.515 39.1994 175.104L40.3309 175.977C39.6703 176.899 39.5765 178.047 40.1371 179.069C40.9926 180.629 42.7825 181 44.54 180.037L45.4008 179.565C47.3197 178.512 47.6223 176.597 46.9339 175.342C46.4127 174.391 45.5768 173.59 44.3151 173.629Z" fill="white"/>
<path d="M30.4001 159.635C30.4001 159.635 42.1263 160.029 43.3367 160.083C45.6289 160.258 46.2028 161.531 46.2935 163.406L44.8649 163.471C44.7657 161.448 44.004 161.562 42.5736 161.497L41.7455 161.483L33.4853 168.48L32.9666 166.993L39.5902 161.39L30.9256 161.141L30.4001 159.635Z" fill="white"/>
<path d="M19.4408 134.026L19.394 132.534L38.7534 131.926L38.8002 133.419L19.4408 134.026Z" fill="white"/>
<path d="M28.2229 97.0884L28.7912 98.3604C27.936 98.6662 26.8581 99.887 26.4254 101.38C25.9528 103.01 26.4351 104.726 28.046 105.193C30.0104 105.762 30.7529 104.082 31.5879 102.45C32.6153 100.448 34.3474 98.5867 36.9798 99.3496C39.6121 100.113 40.1258 102.455 39.397 104.969C38.5657 107.837 36.9042 108.868 35.3959 109.517L34.7997 108.194C36.7635 107.443 37.5803 106.168 38.0472 104.557C38.6223 102.573 38.0856 101.118 36.6515 100.703C34.5496 100.093 33.3712 101.881 32.3008 104.105C31.3038 106.222 29.5922 107.132 27.6081 106.557C25.7761 105.898 24.1367 104.06 25.0762 100.819C25.6854 98.7166 26.9091 97.5807 28.2229 97.0884Z" fill="white"/>
<path d="M44.9639 90.04C43.7973 92.3836 41.3925 92.8543 38.8291 91.5782C38.7193 91.5235 34.1052 89.2266 33.9221 89.1355L34.5602 87.8538L39.4671 90.2966C41.2066 91.1625 42.926 91.0588 43.7645 89.3743C44.5484 87.7997 43.768 86.1546 41.9737 85.2614L37.0667 82.8186L37.6956 81.5553C37.6956 81.5553 37.6956 81.5553 37.714 81.5644L42.6759 84.0345L46.704 86.0397L46.0751 87.3031L44.83 86.6833C45.5814 87.4686 45.4744 89.0146 44.9639 90.04Z" fill="white"/>
<path d="M48.8732 77.4546C50.0123 77.2498 51.2171 76.3324 51.9426 75.3426C52.801 74.1713 52.9392 72.9794 52.2298 72.4595C51.3555 71.8187 50.5903 72.1708 49.0217 73.8612C48.0962 74.8819 46.4022 76.3283 44.571 74.9863C42.6904 73.608 43.3397 71.6495 44.5124 70.0493C45.3467 68.911 46.8814 67.855 47.9072 67.77L48.2891 69.0135C48.2891 69.0135 47.3678 69.3019 46.7587 69.7177C45.2933 70.7484 44.135 72.917 45.3393 73.7996C46.4116 74.5855 47.269 73.6924 48.6232 72.2252C50.4061 70.3115 51.9005 70.4177 53.0882 71.2882C54.276 72.1587 54.6965 73.9377 53.1248 76.0823C52.3389 77.1546 51.3508 78.4336 49.1221 78.8796L48.8732 77.4546Z" fill="white"/>
<path d="M59.3151 63.4404C60.5365 64.6486 61.5874 63.7607 62.1191 63.136C62.3663 63.3805 62.8753 63.8839 63.1079 64.1141C61.9 65.3933 60.4893 66.6158 58.1919 64.3432C57.9737 64.1274 56.0544 62.2287 54.1787 60.3732L53.143 61.4201L52.1688 60.4564L53.2045 59.4095C51.9831 58.2013 50.9071 57.1369 50.9071 57.1369L51.9139 56.119C51.9139 56.119 52.9899 57.1834 54.2113 58.3917L55.7504 56.8358L56.7246 57.7996L55.1855 59.3554C57.0904 61.2397 59.1842 63.3109 59.3151 63.4404Z" fill="white"/>
<path d="M74.8679 54.0723L73.7387 54.9189L73.0272 53.9697C73.0883 54.9719 72.3477 56.1662 71.2185 57.0127C71.153 57.0618 71.0058 57.1722 70.8421 57.2949C69.3856 58.3868 67.5531 58.1246 66.7189 57.0118C66.6575 56.93 66.5594 56.7991 66.498 56.7172C65.2957 55.1135 65.8361 53.1747 68.0944 51.4816C68.3072 51.3221 69.6818 50.2916 70.0582 50.0094C69.96 49.8785 69.7024 49.5348 69.6043 49.4039C69.2117 48.8802 68.1606 48.0578 66.475 49.3215C64.9531 50.4624 64.7729 51.5178 64.6827 52.1477L63.2879 51.7874C63.6646 49.869 64.7325 48.8384 65.6489 48.1514C66.7617 47.3171 68.9913 46.2336 70.8684 48.7374C70.8684 48.7374 74.6307 53.79 74.8679 54.0723ZM70.8802 51.1059C70.5202 51.3758 69.3255 52.2714 68.9982 52.5167C67.2636 53.8172 66.7602 54.8847 67.5822 55.9812C67.5944 55.9975 67.6313 56.0466 67.6558 56.0793C68.0852 56.6521 69.0464 56.9796 70.1428 56.1576C70.2083 56.1085 70.2901 56.0472 70.3556 55.9981C72.0575 54.7222 72.3279 53.0369 71.4445 51.8586L70.8802 51.1059Z" fill="white"/>
<path d="M82.1228 49.4708L80.8909 50.1592L75.9819 41.375L77.2138 40.6866L82.1228 49.4708ZM75.0387 36.7944L73.8067 37.4828L74.7247 39.1254L75.9566 38.437L75.0387 36.7944Z" fill="white"/>
<path d="M89.3732 34.45C91.8128 33.5001 93.9017 34.7499 94.9481 37.4373C94.9852 37.5326 96.8775 42.3926 96.9518 42.5832L95.6176 43.1027L93.6139 37.9567C92.9015 36.1271 91.5402 35.0549 89.8058 35.7302C88.1668 36.3684 87.657 38.1033 88.3917 39.9901L90.3954 45.1361L89.0804 45.6481L85.4292 36.2711L86.7443 35.759L87.2266 36.9978C87.1796 35.9187 88.3059 34.8656 89.3732 34.45Z" fill="white"/>
<path d="M112.225 38.5395L110.843 38.8209L110.606 37.6585C110.232 38.5903 109.051 39.3524 107.668 39.6338C107.588 39.6501 107.408 39.6868 107.207 39.7276C105.424 40.0906 103.88 39.0689 103.603 37.706C103.582 37.6058 103.55 37.4455 103.529 37.3452C103.13 35.3811 104.448 33.8605 107.214 33.2977C107.475 33.2447 109.158 32.9021 109.619 32.8083C109.586 32.6479 109.501 32.2271 109.468 32.0667C109.338 31.4254 108.74 30.232 106.676 30.6521C104.812 31.0314 104.197 31.9079 103.846 32.4385L102.74 31.5157C103.902 29.9434 105.308 29.4694 106.43 29.241C107.793 28.9637 110.272 28.9393 110.896 32.0058C110.896 32.0058 112.132 38.1829 112.225 38.5395ZM109.892 34.1511C109.451 34.2408 107.988 34.5385 107.587 34.6201C105.463 35.0524 104.551 35.8015 104.824 37.1444C104.828 37.1644 104.84 37.2245 104.849 37.2646C104.991 37.9661 105.72 38.6736 107.063 38.4004C107.143 38.3841 107.243 38.3637 107.323 38.3474C109.408 37.9232 110.374 36.5161 110.08 35.073L109.892 34.1511Z" fill="white"/>
<path d="M118.824 22.9398L120.234 22.8907L120.439 28.7776C120.871 27.6779 122.18 27.0593 123.284 27.0209C125.634 26.9391 127.619 28.6915 127.721 31.6145C127.736 32.0641 127.741 32.1868 127.756 32.616C127.86 35.6208 125.733 37.4139 123.648 37.4865C122.626 37.522 121.384 37.115 120.694 36.1158L120.739 37.4035L119.329 37.4526L118.824 22.9398ZM120.505 31.8656L120.54 32.8671C120.616 35.0543 122.128 36.1477 123.559 36.0979C124.949 36.0496 126.4 34.8325 126.325 32.6658L126.29 31.6642C126.22 29.6611 125.029 28.3723 123.292 28.4327C121.595 28.4918 120.438 29.9237 120.505 31.8656Z" fill="white"/>
<path d="M136.056 22.9517L137.46 23.091L136.027 37.5416L134.622 37.4023L136.056 22.9517Z" fill="white"/>
<path d="M151.669 37.7516L152.541 38.8461C151.195 39.9728 149.827 40.0628 148.177 39.6639C146.089 39.1592 144.072 36.8831 144.784 33.9408C144.885 33.5233 144.913 33.404 145.014 32.9866C145.706 30.1238 148.052 28.7761 150.438 29.3528C152.804 29.9247 154.236 32.2699 153.563 35.0532C153.515 35.252 153.366 35.8682 153.303 36.1267C153.244 36.1123 146.146 34.3965 146.146 34.3965C145.736 36.4435 147.117 37.9557 148.508 38.2921C149.741 38.5901 150.719 38.6371 151.669 37.7516ZM150.102 30.7444C148.392 30.3311 146.955 31.2253 146.454 33.1242L152.239 34.5227C152.646 32.6643 151.752 31.1433 150.102 30.7444Z" fill="white"/>
<path d="M173.871 32.9838L175.131 33.62L168.584 46.5821L167.324 45.9458L173.871 32.9838Z" fill="white"/>
<path d="M183.098 52.4172L183.517 53.7523C181.856 54.3181 180.547 53.9088 179.152 52.9419C177.386 51.7187 176.326 48.8685 178.05 46.3805C178.294 46.0274 178.364 45.9266 178.609 45.5735C180.286 43.1527 182.96 42.7413 184.978 44.1392C186.978 45.5255 187.469 48.2293 185.838 50.5828C185.721 50.7509 185.36 51.2721 185.209 51.4906C185.158 51.4557 179.157 47.2968 179.157 47.2968C178.036 49.0581 178.779 50.9664 179.955 51.7819C180.998 52.5042 181.893 52.9004 183.098 52.4172ZM184.162 45.316C182.717 44.3142 181.054 44.6303 179.902 46.2209L184.794 49.6109C185.844 48.0242 185.558 46.2829 184.162 45.316Z" fill="white"/>
<path d="M200.758 57.4938L201.76 58.4875L194.545 65.7637C192.558 67.7679 190.301 67.4882 188.543 65.7457C187.309 64.5216 186.84 63.0773 187.123 61.6009L188.411 61.8703C188.257 62.8978 188.565 63.9522 189.465 64.8451C190.685 66.0548 192.132 66.1644 193.414 64.8718L194.739 63.5646C193.641 64.032 192.294 63.5026 191.495 62.7105C189.825 61.0544 189.756 58.4225 191.816 56.3457C192.132 56.0261 192.204 55.9535 192.507 55.6485C194.624 53.5136 197.387 53.8056 198.869 55.2745C199.609 56.009 200.164 57.1636 199.894 58.3652L200.758 57.4938ZM196.913 61.4004L197.605 60.7033C199.145 59.1493 198.935 57.3279 197.919 56.3199C196.917 55.3262 195.021 55.1172 193.509 56.6422L192.818 57.3393C191.406 58.7626 191.298 60.5275 192.533 61.7516C193.709 62.9181 195.56 62.7656 196.913 61.4004Z" fill="white"/>
<path d="M204.603 77.9775L203.784 76.8282L204.75 76.1398C203.747 76.1767 202.571 75.4073 201.752 74.2579C201.704 74.1913 201.597 74.0414 201.479 73.8748C200.422 72.3923 200.729 70.5667 201.862 69.7596C201.945 69.7003 202.078 69.6054 202.161 69.546C203.794 68.3829 205.719 68.9701 207.357 71.2688C207.511 71.4854 208.508 72.8846 208.781 73.2677C208.914 73.1728 209.264 72.9235 209.397 72.8286C209.93 72.4488 210.778 71.418 209.556 69.7022C208.452 68.1531 207.401 67.9474 206.774 67.842L207.168 66.4563C209.076 66.8795 210.081 67.972 210.745 68.9048C211.552 70.0375 212.582 72.2927 210.033 74.1085C210.033 74.1085 204.891 77.7473 204.603 77.9775ZM207.665 74.0629C207.404 73.6964 206.538 72.4804 206.3 72.1473C205.042 70.3816 203.987 69.8525 202.871 70.6477C202.854 70.6596 202.804 70.6952 202.771 70.7189C202.188 71.1343 201.837 72.0873 202.633 73.2033C202.68 73.27 202.739 73.3533 202.787 73.4199C204.021 75.1523 205.699 75.4633 206.899 74.6088L207.665 74.0629Z" fill="white"/>
<path d="M213.87 89.1594L213.928 90.587C212.163 90.5593 210.838 89.5208 210.068 87.9393C209.119 85.9901 209.724 83.2157 212.446 81.8906C212.832 81.7026 212.943 81.6488 213.329 81.4608C215.977 80.1715 218.546 81.15 219.611 83.3383C220.355 84.8646 220.117 86.5726 219.051 87.9335L217.963 87.0072C218.667 86.1182 218.817 84.9764 218.306 83.9282C217.527 82.3284 215.758 81.8706 213.955 82.7481L213.073 83.1778C211.105 84.1358 210.71 86.0343 211.337 87.3215C211.811 88.2962 212.607 89.137 213.87 89.1594Z" fill="white"/>
<path d="M227.092 103.812C227.092 103.812 215.398 102.85 214.192 102.737C211.911 102.451 211.399 101.152 211.4 99.2755L212.83 99.2797C212.831 101.305 213.597 101.228 215.023 101.362L215.849 101.416L224.439 94.8279L224.885 96.3383L217.997 101.614L226.64 102.282L227.092 103.812Z" fill="white"/>
<path d="M236.389 119.908L236.501 121.397L217.187 122.85L217.075 121.361L236.389 119.908Z" fill="white"/>
<circle cx="127.75" cy="129.249" r="73.1047" fill="#3D5656"/>
<path d="M100.08 107.995H101.76C101.76 107.995 101.76 118.147 101.76 118.483C101.76 122.731 99.3604 125.299 95.9764 125.299C94.4404 125.299 93.0964 124.771 92.0884 123.763L93.2404 122.587C93.9124 123.259 94.8724 123.619 95.9764 123.619C98.5204 123.619 100.08 121.675 100.08 118.483V107.995ZM111.942 109.435C108.846 109.435 107.022 111.763 107.022 115.531V117.523C107.022 121.339 108.846 123.547 111.942 123.547C114.99 123.547 116.862 121.291 116.862 117.523V115.531C116.862 111.811 114.99 109.435 111.942 109.435ZM111.942 107.779C115.806 107.779 118.518 110.779 118.518 115.531C118.518 115.891 118.518 117.139 118.518 117.523C118.518 122.371 115.782 125.227 111.942 125.227C108.198 125.227 105.39 122.539 105.39 117.523C105.39 116.803 105.39 116.275 105.39 115.531C105.39 110.635 108.078 107.779 111.942 107.779ZM121.474 107.995H123.154V125.035H121.474V107.995ZM139.869 107.995V125.035H137.733L128.661 110.323V125.035H127.005V107.995H129.165L138.213 122.635V107.995H139.869ZM105.72 135.995V153.035H103.584L94.5124 138.323V153.035H92.8564V135.995H95.0164L104.064 150.635V135.995H105.72ZM115.505 137.435C112.409 137.435 110.585 139.763 110.585 143.531V145.523C110.585 149.339 112.409 151.547 115.505 151.547C118.553 151.547 120.425 149.291 120.425 145.523V143.531C120.425 139.811 118.553 137.435 115.505 137.435ZM115.505 135.779C119.369 135.779 122.081 138.779 122.081 143.531C122.081 143.891 122.081 145.139 122.081 145.523C122.081 150.371 119.345 153.227 115.505 153.227C111.761 153.227 108.953 150.539 108.953 145.523C108.953 144.803 108.953 144.275 108.953 143.531C108.953 138.635 111.641 135.779 115.505 135.779ZM143.774 135.995L138.71 153.035H136.958L133.694 142.067L130.454 153.035H128.702L123.638 135.995H125.342L129.566 150.059L132.854 139.139H134.558L137.846 150.059L142.022 135.995H143.774Z" fill="white"/>
<path d="M164.951 121.749V123.749H171.541L159.951 135.339L161.361 136.749L172.951 125.159V131.749H174.951V121.749H164.951Z" fill="#CFFDE1"/>
</svg>
