<svg width="1440" height="41" viewBox="0 0 1440 41" fill="none" xmlns="http://www.w3.org/2000/svg">
<path d="M229.391 24.5985C228.01 26.4132 226.948 26.817 225.877 27.2239C224.744 27.6544 223.602 28.0884 222.065 30.2002C217.431 21.6108 212.647 19.37 207.863 20.8638C206.816 21.2373 205.77 22.7311 205.022 24.9718C204.181 27.4561 203.261 26.8113 202.303 26.1396C201.389 25.4986 200.44 24.8332 199.491 26.8391H196.351C195.582 27.8005 195.05 27.277 194.511 26.7467C194.003 26.247 193.489 25.741 192.763 26.4657C191.283 27.6981 189.758 27.6879 188.237 27.6776C186.993 27.6692 185.752 27.6608 184.541 28.333C182.952 28.7911 181.412 29.9984 179.862 31.2147C177.62 32.973 175.354 34.7497 172.88 34.3082C170.629 34.074 168.496 33.1048 166.369 32.1383L166.366 32.137C165.105 31.5634 163.845 30.9909 162.565 30.5738L162.501 30.5605C160.732 30.1918 159.107 29.8532 157.482 32.0676C155.987 34.6818 154.043 35.0552 152.399 33.5613C150.007 30.9471 147.914 31.3206 146.12 36.549H145.522C142.664 35.3072 140.322 31.4849 138.239 28.0852L138.217 28.0493C137.802 27.3718 137.397 26.7115 137 26.0923C135.207 26.3722 134.422 28.9602 133.7 31.3398C133.46 32.1343 133.226 32.9071 132.964 33.5613C132.434 33.9029 131.904 34.264 131.375 34.625L131.337 34.6507C127.251 37.4394 123.205 40.2001 119.509 33.9348C117.855 33.9348 117.014 35.9665 116.387 37.4823C116.164 38.0217 115.968 38.4957 115.771 38.7897C113.079 41.032 110.798 39.7216 108.684 38.5072C106.575 37.2947 104.632 36.1778 102.616 38.7897C102.196 37.4793 101.776 35.985 101.305 34.3068C101.105 33.5936 100.895 32.8472 100.672 32.0676C98.9 33.3073 97.228 32.2793 95.626 31.2938C93.849 30.2012 92.157 29.1607 90.506 31.3206C89.691 30.9132 89.142 29.8391 88.594 28.7651L88.59 28.7573C88.133 27.8649 87.677 26.9735 87.068 26.4657C84.825 27.2126 82.433 26.8398 80.34 22.3584C79.144 23.4785 77.948 24.5986 76.902 25.7188C75.524 25.454 74.221 24.2506 72.947 23.0734L72.946 23.0721C70.625 20.9292 68.4 18.875 65.988 22.7312C62.461 19.7941 59.043 20.4106 55.636 21.0253L55.634 21.0258C53.409 21.4271 51.189 21.8273 48.945 21.2373C48.701 21.1695 48.456 21.0956 48.21 21.0213L48.186 21.014L48.185 21.0139C45.731 20.2726 43.246 19.5221 41.62 24.5985C39.862 25.0167 38.433 23.4443 37.042 21.9139L37.039 21.9111L37.036 21.9083C35.945 20.7075 34.879 19.5341 33.697 19.37C32.954 19.37 32.393 20.2807 31.814 21.2221L31.809 21.231C31.339 21.992 30.859 22.7713 30.258 23.1046C28.398 22.8366 26.547 22.2053 24.725 21.5839C18.931 19.6076 13.429 17.7313 8.88 27.9595C7.843 27.7437 7.25501 26.4045 6.71301 25.1686C6.31801 24.2667 5.94599 23.4197 5.44199 23.1046C4.57799 22.2955 3.71401 22.4602 2.90701 22.6142L2.905 22.6146C2.595 22.6737 2.29299 22.7312 2.00299 22.7312C0.507991 22.7312 -1.28601 22.3577 -2.18301 19.7435C-4.39401 13.9683 -7.079 14.6085 -10.009 15.3075C-11.437 15.6481 -12.923 16.0026 -14.442 15.6356C-15.24 18.6238 -16.505 20.1242 -17.807 21.6676L-17.808 21.6693C-18.947 23.0185 -20.113 24.4008 -21.02 26.8391C-22.066 26.0922 -22.963 25.3454 -23.711 24.5985C-25.206 24.9719 -25.953 26.8391 -26.701 29.0799C-29.242 26.4657 -33.428 23.1046 -35.97 21.6108C-36.534 21.2703 -37.066 20.9236 -37.572 20.5936C-40.951 18.3895 -43.184 16.933 -46.435 23.1046C-48.827 27.5861 -51.667 29.0799 -54.508 29.4534C-58.843 29.8268 -62.879 32.0676 -66.916 34.6818C-69.151 36.2045 -71.386 35.4851 -73.668 34.7505C-74.744 34.4042 -75.831 34.0545 -76.932 33.9348C-77.465 33.819 -77.998 33.6672 -78.53 33.5158L-78.539 33.5134C-81.432 32.6889 -84.275 31.8787 -86.799 36.9225C-88.011 36.2239 -88.293 34.0733 -88.587 31.8289L-88.588 31.8209C-88.766 30.4682 -88.948 29.0821 -89.341 27.9595C-90.537 26.4657 -92.181 24.5985 -93.826 22.7312C-96.824 24.6036 -99.746 23.0273 -102.7 21.4332L-102.711 21.4272C-103.878 20.7976 -105.05 20.166 -106.234 19.7435C-107.403 21.4696 -108.648 22.7708 -109.888 24.0668C-112.136 26.416 -114.367 28.7478 -116.101 33.5613C-117.507 34.0882 -118.913 34.5325 -120.304 34.9719L-120.314 34.9751C-121.877 35.4689 -123.42 35.9568 -124.921 36.549C-126.267 37.2959 -127.613 37.2959 -128.958 36.1756C-130.303 35.0552 -131.798 34.6818 -132.845 36.9225C-135.685 42.5243 -138.526 41.4039 -141.665 38.0428C-141.788 37.8889 -141.938 37.7984 -142.112 37.6928L-142.114 37.6914C-142.362 37.5412 -142.661 37.36 -143.011 36.9225C-145.552 39.1632 -148.243 38.7897 -150.336 32.8145C-152.408 34.1645 -153.991 31.9901 -155.642 29.7213L-155.644 29.7184C-156.732 28.2222 -157.85 26.6857 -159.157 26.0923C-161.082 29.0778 -163.303 28.822 -165.543 28.564C-168.347 28.2411 -171.182 27.9146 -173.509 33.9348C-175.452 32.441 -177.396 32.441 -179.19 34.3082C-179.908 33.3419 -180.616 32.2098 -181.319 31.0862L-181.321 31.0834C-184.419 26.129 -187.411 21.3453 -190.701 31.6941C-191.82 32.5679 -192.612 30.9882 -193.368 29.481C-194.227 27.7674 -195.039 26.1474 -196.232 28.333C-197.842 22.5014 -200.189 22.8417 -202.479 23.1736C-204.442 23.4582 -206.364 23.7367 -207.744 20.117C-208.502 20.4614 -209.006 21.3616 -209.534 22.305C-210.152 23.4076 -210.802 24.5694 -211.93 24.9718C-212.711 24.6276 -213.562 23.7543 -214.454 22.8398C-216.464 20.7782 -218.679 18.5066 -220.75 21.6108C-222.245 23.478 -223.89 23.478 -225.534 22.3577C-227.029 21.2373 -229.625 21.2373 -231.12 21.6108C-232.01 23.2791 -232.901 24.7405 -233.853 26.3031C-234.179 26.8387 -234.514 27.3878 -234.857 27.9595C-239.043 26.4657 -242.93 28.7064 -246.668 33.1879C-246.817 33.1879 -246.967 33.5613 -246.967 33.5613C-250.899 33.5613 -254.831 32.2024 -258.718 30.8592L-258.719 30.8589C-260.594 30.2107 -262.459 29.5661 -264.309 29.0799C-264.715 28.79 -265.076 28.4757 -265.418 28.1777C-265.958 27.708 -266.451 27.2791 -267 27.0506L-267 0.84375H1733V27.0505C1732.33 26.6282 1731.72 25.9892 1731.14 25.3813L1731.1 25.3346C1729.82 23.9767 1728.71 22.8054 1727.48 24.5985C1726.1 26.4132 1725.04 26.817 1723.97 27.2239C1722.84 27.6544 1721.7 28.0884 1720.17 30.2002C1715.55 21.6108 1710.77 19.37 1706 20.8638C1704.96 21.2373 1703.91 22.7311 1703.17 24.9718C1702.33 27.4553 1701.41 26.8117 1700.45 26.1402C1699.54 25.4992 1698.59 24.8332 1697.65 26.8391H1694.51C1693.75 27.8005 1693.21 27.277 1692.68 26.7467L1692.67 26.7404C1692.17 26.2427 1691.66 25.744 1690.93 26.4657C1689.46 27.6981 1687.93 27.6879 1686.42 27.6776C1685.18 27.6692 1683.94 27.6608 1682.73 28.333C1681.15 28.7871 1679.64 29.9777 1678.1 31.1832L1678.05 31.2207C1675.81 32.977 1673.56 34.7492 1671.09 34.3082C1668.86 34.0748 1666.74 33.1115 1664.62 32.1484L1664.59 32.137C1663.34 31.5634 1662.08 30.9909 1660.8 30.5738L1660.74 30.5606C1658.97 30.1921 1657.35 29.8543 1655.73 32.0676C1654.24 34.6818 1652.3 35.0552 1650.66 33.5613C1648.27 30.9471 1646.18 31.3206 1644.39 36.549H1643.8C1640.95 35.3122 1638.63 31.5153 1636.55 28.1259L1636.53 28.0851L1636.52 28.0738C1636.1 27.3877 1635.69 26.719 1635.29 26.0923C1633.5 26.3716 1632.72 28.9518 1632 31.3275V31.3427L1631.97 31.4327C1631.74 32.1949 1631.52 32.9322 1631.26 33.5613C1630.73 33.9013 1630.21 34.2605 1629.69 34.6199L1629.64 34.6506L1629.63 34.6565C1625.55 37.4432 1621.53 40.1958 1617.84 33.9348C1616.19 33.9348 1615.35 35.9557 1614.73 37.4702L1614.7 37.5439C1614.49 38.0576 1614.3 38.5069 1614.11 38.7897C1611.42 41.0297 1609.16 39.7242 1607.05 38.5109L1607.04 38.5065C1604.93 37.2944 1602.99 36.1787 1600.98 38.7897C1600.57 37.4826 1600.15 35.9924 1599.68 34.3193V34.3082C1599.48 33.5946 1599.27 32.8477 1599.04 32.0676C1597.28 33.3073 1595.61 32.2793 1594.01 31.2938C1592.24 30.2012 1590.55 29.1607 1588.9 31.3206C1588.09 30.9133 1587.54 29.8396 1586.99 28.7657C1586.54 27.8707 1586.08 26.9749 1585.47 26.4657C1583.23 27.2126 1580.84 26.8391 1578.76 22.3577C1577.56 23.478 1576.37 24.5984 1575.33 25.7188C1573.95 25.454 1572.65 24.2503 1571.38 23.0734L1571.37 23.0683C1569.06 20.9268 1566.84 18.8773 1564.44 22.7312C1560.92 19.7941 1557.51 20.4106 1554.11 21.0254C1551.89 21.4268 1549.67 21.8275 1547.43 21.2373C1547.26 21.1899 1547.09 21.1393 1546.92 21.0877L1546.67 21.0139C1544.22 20.2726 1541.74 19.5221 1540.12 24.5985C1538.37 25.0169 1536.94 23.4424 1535.55 21.9111L1535.53 21.8919C1534.45 20.6969 1533.39 19.5334 1532.21 19.37C1531.47 19.37 1530.91 20.2807 1530.34 21.2221L1530.33 21.236C1529.86 21.9954 1529.39 22.7721 1528.78 23.1046C1526.93 22.8366 1525.08 22.2053 1523.26 21.5838C1517.48 19.6075 1511.99 17.7314 1507.45 27.9595C1506.42 27.7437 1505.83 26.4045 1505.29 25.1686C1504.9 24.2667 1504.53 23.4197 1504.02 23.1046C1503.16 22.2965 1502.3 22.4598 1501.49 22.6137L1501.48 22.6153C1501.18 22.6742 1500.88 22.7312 1500.59 22.7312C1499.1 22.7312 1497.31 22.3577 1496.41 19.7435C1494.21 13.9691 1491.53 14.6084 1488.6 15.3073C1487.18 15.6478 1485.7 16.0026 1484.18 15.6356C1483.39 18.6137 1482.13 20.1141 1480.83 21.6519L1480.82 21.6693L1480.78 21.7115C1479.67 23.0475 1478.51 24.4263 1477.62 26.8391C1476.57 26.0922 1475.68 25.3454 1474.93 24.5985C1473.44 24.9719 1472.7 26.8391 1471.95 29.0799C1469.41 26.4657 1465.24 23.1046 1462.7 21.6108C1462.21 21.3145 1461.75 21.0135 1461.3 20.7229L1461.1 20.5936C1457.73 18.3895 1455.5 16.933 1452.26 23.1046C1449.87 27.5861 1447.04 29.0799 1444.2 29.4534C1439.88 29.8268 1435.85 32.0676 1431.82 34.6818C1429.59 36.2039 1427.36 35.4857 1425.08 34.7515C1424.01 34.4052 1422.93 34.0544 1421.83 33.9348C1421.33 33.8275 1420.84 33.6894 1420.35 33.5493L1420.22 33.5134C1417.34 32.6889 1414.5 31.8787 1411.98 36.9225C1410.77 36.2239 1410.49 34.0734 1410.2 31.8289L1410.19 31.7528C1410.01 30.4219 1409.83 29.0633 1409.45 27.9595C1408.25 26.4673 1406.62 24.6022 1404.98 22.7368L1404.97 22.7312C1401.98 24.6036 1399.06 23.027 1396.12 21.4329L1396.08 21.4095C1394.92 20.7859 1393.77 20.1621 1392.59 19.7435C1391.42 21.4696 1390.18 22.7708 1388.94 24.0668C1386.7 26.4159 1384.48 28.7478 1382.74 33.5613C1381.34 34.0882 1379.94 34.5325 1378.55 34.9719C1376.99 35.4668 1375.45 35.9555 1373.94 36.549C1372.6 37.2959 1371.26 37.2959 1369.92 36.1756C1368.57 35.0552 1367.08 34.6818 1366.04 36.9225C1363.2 42.5243 1360.37 41.4039 1357.24 38.0428C1357.11 37.894 1356.97 37.8044 1356.81 37.7033L1356.79 37.6914C1356.54 37.5412 1356.24 37.36 1355.89 36.9225C1353.36 39.1632 1350.67 38.7897 1348.58 32.8145C1346.52 34.1639 1344.94 31.9919 1343.29 29.7241V29.7183L1343.26 29.6713C1342.18 28.1901 1341.08 26.6795 1339.78 26.0923C1337.86 29.0768 1335.65 28.8223 1333.41 28.5643C1330.61 28.2414 1327.78 27.9146 1325.46 33.9348C1323.52 32.441 1321.58 32.441 1319.79 34.3082C1319.08 33.3411 1318.37 32.2078 1317.67 31.0833C1314.58 26.1289 1311.59 21.3454 1308.31 31.6941C1307.19 32.5679 1306.4 30.9882 1305.65 29.481V29.4744C1304.79 27.7632 1303.98 26.1502 1302.79 28.333C1301.18 22.5014 1298.84 22.8417 1296.56 23.1736C1294.6 23.4582 1292.68 23.7367 1291.3 20.117C1290.55 20.4614 1290.04 21.3616 1289.52 22.3051L1289.51 22.3167C1288.9 23.4159 1288.25 24.5708 1287.13 24.9718C1286.35 24.6275 1285.5 23.7541 1284.61 22.8393L1284.6 22.8342C1282.6 20.774 1280.39 18.5092 1278.32 21.6108C1276.83 23.478 1275.19 23.478 1273.55 22.3577C1272.06 21.2373 1270.57 21.2373 1269.08 21.6108C1268.19 23.2719 1267.31 24.7296 1266.36 26.2846L1266.35 26.3031L1266.33 26.327L1266.16 26.6008C1265.9 27.042 1265.62 27.4927 1265.35 27.9595C1261.17 26.4657 1257.29 28.7064 1253.56 33.1879C1253.41 33.1879 1253.26 33.5613 1253.26 33.5613C1249.35 33.5613 1245.43 32.2064 1241.56 30.8651L1241.54 30.8593C1239.67 30.2109 1237.81 29.5662 1235.96 29.0799C1235.42 28.6907 1235.01 28.1562 1234.59 27.604L1234.51 27.5058C1234.28 27.2048 1234.04 26.9007 1233.78 26.6142C1233.32 26.2305 1232.88 25.7728 1232.47 25.3345C1231.18 23.9784 1230.07 22.8071 1228.84 24.5985C1227.46 26.4132 1226.4 26.817 1225.33 27.2239L1225.32 27.2273C1224.19 27.6567 1223.05 28.094 1221.52 30.2002C1216.88 21.6108 1212.1 19.37 1207.31 20.8638C1206.27 21.2373 1205.22 22.7311 1204.47 24.9718C1203.63 27.4553 1202.71 26.8117 1201.75 26.1403C1200.84 25.4993 1199.89 24.8332 1198.94 26.8391H1195.8C1195.03 27.7988 1194.5 27.2788 1193.96 26.7494L1193.95 26.7404C1193.45 26.2427 1192.94 25.744 1192.21 26.4657C1190.73 27.6981 1189.21 27.6879 1187.69 27.6776C1186.44 27.6692 1185.2 27.6608 1183.99 28.333C1182.4 28.7911 1180.86 29.9985 1179.31 31.2147L1179.3 31.2208C1177.06 32.9771 1174.81 34.7492 1172.33 34.3082C1170.08 34.0738 1167.94 33.1039 1165.82 32.137C1164.56 31.5634 1163.3 30.9909 1162.02 30.5738L1161.95 30.5605C1160.18 30.192 1158.56 29.8543 1156.93 32.0676C1155.44 34.6818 1153.49 35.0552 1151.85 33.5613C1149.46 30.9471 1147.36 31.3206 1145.57 36.549H1144.97C1142.11 35.3073 1139.77 31.4854 1137.69 28.0858C1137.27 27.3955 1136.86 26.7226 1136.45 26.0923C1134.66 26.3723 1133.87 28.9613 1133.15 31.3414L1133.12 31.4317C1132.89 32.1942 1132.67 32.9319 1132.41 33.5613C1131.89 33.9013 1131.36 34.2605 1130.84 34.6199L1130.79 34.6506L1130.78 34.6564C1126.69 37.4431 1122.66 40.1958 1118.96 33.9348C1117.31 33.9348 1116.47 35.9557 1115.85 37.4702L1115.84 37.4824L1115.76 37.6806C1115.56 38.137 1115.4 38.5323 1115.22 38.7897C1112.53 41.0295 1110.26 39.7245 1108.14 38.5113L1108.13 38.5064C1106.03 37.294 1104.08 36.1778 1102.07 38.7897C1101.65 37.4799 1101.23 35.9864 1100.76 34.3091C1100.56 33.5952 1100.35 32.848 1100.12 32.0676C1098.35 33.3073 1096.68 32.2793 1095.08 31.2938L1095.07 31.2906C1093.3 30.1992 1091.61 29.1628 1089.96 31.3206C1089.14 30.9133 1088.59 29.8395 1088.04 28.7656C1087.59 27.8706 1087.13 26.9749 1086.52 26.4657C1084.28 27.2126 1081.88 26.8391 1079.79 22.3577L1079.56 22.5698C1078.45 23.6195 1077.33 24.6691 1076.35 25.7188C1074.97 25.454 1073.67 24.2506 1072.4 23.0734C1070.08 20.9301 1067.85 18.8742 1065.44 22.7312C1061.91 19.7941 1058.49 20.4106 1055.09 21.0254L1055.08 21.0267C1052.86 21.4277 1050.64 21.8268 1048.4 21.2373C1048.14 21.1673 1047.89 21.0906 1047.64 21.0139C1045.18 20.273 1042.7 19.5249 1041.07 24.5985C1039.31 25.0169 1037.88 23.4424 1036.49 21.9111C1035.4 20.7093 1034.33 19.5342 1033.15 19.37C1032.4 19.37 1031.84 20.2785 1031.26 21.2187L1031.25 21.2357C1030.78 21.9952 1030.31 22.772 1029.71 23.1046C1027.85 22.8366 1026 22.2053 1024.18 21.5838C1018.38 19.6079 1012.88 17.7332 1008.33 27.9595C1007.31 27.7472 1006.73 26.4485 1006.19 25.2301L1006.16 25.1685C1005.77 24.2666 1005.4 23.4197 1004.89 23.1046C1004.03 22.2965 1003.17 22.4598 1002.36 22.6137C1002.05 22.6729 1001.74 22.7312 1001.45 22.7312C999.96 22.7312 998.17 22.3577 997.27 19.7435C995.06 13.9683 992.37 14.6085 989.44 15.3075L989.43 15.3103C988 15.6501 986.53 16.0016 985.01 15.6356C984.21 18.6249 982.95 20.1254 981.64 21.6693C980.5 23.0185 979.34 24.4008 978.43 26.8391C977.38 26.0922 976.49 25.3454 975.74 24.5985C974.25 24.9719 973.5 26.8391 972.75 29.0799C970.21 26.4657 966.02 23.1046 963.48 21.6108C962.99 21.3145 962.53 21.0135 962.08 20.7229L961.88 20.5936C958.5 18.3905 956.27 16.9347 953.02 23.1046C950.62 27.5861 947.78 29.0799 944.94 29.4534C940.61 29.8268 936.57 32.0676 932.54 34.6818C930.3 36.2045 928.06 35.4851 925.78 34.7505C924.71 34.4042 923.62 34.0545 922.52 33.9348C922.02 33.8276 921.53 33.6895 921.04 33.5494L920.91 33.5134C918.02 32.689 915.18 31.8787 912.65 36.9225C911.45 36.2285 911.16 34.1016 910.87 31.8732L910.86 31.8289C910.69 30.4737 910.5 29.0843 910.11 27.9595C908.91 26.466 907.27 24.5992 905.63 22.7323C902.63 24.6028 899.72 23.0306 896.76 21.4381L896.75 21.4332C895.58 20.8017 894.4 20.1674 893.22 19.7435C892.06 21.4526 890.82 22.7451 889.6 24.0284L889.56 24.0669L889.52 24.1074C887.29 26.4429 885.07 28.7755 883.35 33.5613C881.94 34.0882 880.54 34.5325 879.15 34.9719C877.58 35.4668 876.03 35.9555 874.53 36.549C873.18 37.2959 871.84 37.2959 870.49 36.1756C869.15 35.0552 867.65 34.6818 866.61 36.9225C863.77 42.5243 860.93 41.4039 857.79 38.0428C857.67 37.8941 857.52 37.8046 857.36 37.7035L857.34 37.6913C857.09 37.5412 856.79 37.36 856.44 36.9225C853.9 39.1632 851.21 38.7897 849.11 32.8145C847.04 34.1639 845.46 31.9917 843.81 29.7239V29.7183C842.72 28.2222 841.6 26.6857 840.29 26.0923C838.37 29.0778 836.15 28.822 833.91 28.564C831.1 28.2412 828.27 27.9159 825.94 33.9348C824 32.441 822.06 32.441 820.26 34.3082C819.54 33.3411 818.83 32.2079 818.13 31.0835C815.03 26.1307 812.04 21.3487 808.75 31.6941C807.63 32.5643 806.85 31.0012 806.09 29.4996L806.08 29.481V29.4744C805.22 27.7632 804.41 26.1501 803.22 28.333C801.61 22.5014 799.26 22.8417 796.97 23.1736C795.01 23.4582 793.09 23.7367 791.71 20.117C790.95 20.4614 790.44 21.3616 789.92 22.3051L789.91 22.3165C789.3 23.4157 788.65 24.5707 787.52 24.9718C786.74 24.6275 785.89 23.7541 785 22.8393C782.99 20.7778 780.77 18.5066 778.7 21.6108C777.21 23.478 775.56 23.478 773.92 22.3577C772.42 21.2373 769.83 21.2373 768.33 21.6108C767.45 23.2571 766.57 24.7019 765.64 26.2413L765.6 26.3048C765.41 26.6165 765.22 26.9321 765.02 27.2542C764.88 27.4857 764.74 27.7205 764.59 27.9595C760.41 26.4657 756.52 28.7064 752.78 33.1879C752.63 33.1879 752.48 33.5613 752.48 33.5613C748.56 33.5613 744.63 32.2065 740.75 30.8652L740.73 30.8592C738.86 30.2109 736.99 29.5662 735.14 29.0799C734.57 28.6755 734.16 28.1142 733.72 27.5185L733.69 27.4836L733.63 27.3968C733.28 26.9295 732.914 26.4463 732.451 26.0054C732.198 25.7672 731.953 25.5139 731.714 25.2704L731.695 25.2516C730.392 23.9233 729.273 22.783 728.03 24.5985C726.652 26.4132 725.592 26.817 724.524 27.2239C723.393 27.6544 722.254 28.0884 720.72 30.2002C716.096 21.6108 711.322 19.37 706.549 20.8638C705.505 21.2373 704.46 22.7311 703.715 24.9718C702.875 27.4561 701.957 26.8113 701.001 26.1396C700.089 25.4986 699.142 24.8332 698.195 26.8391H695.063C694.295 27.8005 693.764 27.277 693.226 26.7467C692.719 26.2469 692.206 25.7409 691.482 26.4657C690.006 27.6981 688.484 27.6879 686.966 27.6776C685.725 27.6692 684.486 27.6608 683.278 28.333C681.692 28.7911 680.156 29.9985 678.609 31.2147L678.608 31.2158C676.371 32.9736 674.111 34.7497 671.643 34.3082C669.396 34.0738 667.266 33.1039 665.143 32.137C663.884 31.5634 662.627 30.9909 661.35 30.5738L661.287 30.5606C659.521 30.1918 657.9 29.8532 656.278 32.0676C654.786 34.6818 652.847 35.0552 651.206 33.5613C648.819 30.9471 646.731 31.3206 644.941 36.549H644.344C641.494 35.3081 639.159 31.4901 637.081 28.0922L637.077 28.0853L637.075 28.0812C636.654 27.3925 636.243 26.7212 635.841 26.0923C634.052 26.3722 633.269 28.9608 632.549 31.3405L632.548 31.3437C632.308 32.1374 632.075 32.9077 631.814 33.5613C631.273 33.9104 630.733 34.2799 630.194 34.649L630.191 34.6507C626.113 37.4394 622.076 40.2001 618.388 33.9348C616.738 33.9348 615.899 35.9665 615.273 37.4823L615.264 37.5041C615.045 38.0344 614.852 38.4997 614.659 38.7897C611.972 41.0324 609.695 39.7211 607.586 38.5065C605.482 37.294 603.544 36.1778 601.532 38.7897C601.114 37.481 600.695 35.9889 600.226 34.3133L600.225 34.31C600.025 33.5958 599.815 32.8484 599.593 32.0676C597.824 33.3073 596.156 32.2793 594.557 31.2938C592.784 30.2013 591.096 29.1609 589.449 31.3206C588.635 30.9132 588.088 29.8394 587.541 28.7654L587.537 28.758C587.082 27.8653 586.626 26.9736 586.018 26.4657C583.78 27.2126 581.394 26.8391 579.305 22.3577C578.112 23.478 576.919 24.5984 575.874 25.7188C574.499 25.454 573.199 24.2506 571.928 23.0734C569.613 20.9301 567.392 18.8742 564.985 22.7312C561.465 19.7941 558.055 20.4106 554.655 21.0253C552.434 21.4267 550.218 21.8274 547.979 21.2373C547.729 21.1675 547.475 21.0908 547.222 21.0144C544.773 20.2731 542.292 19.5221 540.67 24.5985C538.915 25.0169 537.487 23.4424 536.099 21.9111C535.01 20.7093 533.944 19.5342 532.764 19.37C532.023 19.37 531.463 20.2806 530.885 21.222C530.416 21.9859 529.934 22.77 529.333 23.1046C527.477 22.8366 525.63 22.2053 523.812 21.5838C518.03 19.6075 512.541 17.7313 508.001 27.9595C506.967 27.7437 506.38 26.4045 505.839 25.1686C505.445 24.2667 505.074 23.4197 504.57 23.1046C503.709 22.2955 502.847 22.4602 502.041 22.6142L502.039 22.6146C501.73 22.6737 501.429 22.7312 501.14 22.7312C499.648 22.7312 497.858 22.3577 496.963 19.7435C494.756 13.9683 492.078 14.6085 489.154 15.3075C487.729 15.6481 486.246 16.0026 484.731 15.6356C483.935 18.6238 482.672 20.1243 481.372 21.6676L481.371 21.6693C480.235 23.0185 479.071 24.4009 478.167 26.8391C477.123 26.0922 476.228 25.3454 475.482 24.5985C473.99 24.9719 473.244 26.8391 472.499 29.0799C469.963 26.4657 465.786 23.1046 463.25 21.6108C462.687 21.2703 462.156 20.9236 461.651 20.5936C458.28 18.3898 456.052 16.9336 452.808 23.1046C450.421 27.5861 447.587 29.0799 444.753 29.4534C440.427 29.8268 436.399 32.0676 432.371 34.6818C430.141 36.2045 427.911 35.485 425.634 34.7505C424.56 34.4043 423.475 34.0544 422.377 33.9348C421.842 33.8184 421.307 33.6657 420.774 33.5134C417.887 32.689 415.05 31.8787 412.531 36.9225C411.322 36.2239 411.041 34.0732 410.748 31.8288L410.745 31.8052C410.568 30.4575 410.387 29.0778 409.996 27.9595C408.804 26.4679 407.166 24.6039 405.528 22.7394L405.523 22.734L405.52 22.7312C402.529 24.6034 399.615 23.0277 396.666 21.4338L396.665 21.4332L396.663 21.432C395.495 20.8009 394.323 20.1671 393.139 19.7435C391.974 21.4673 390.733 22.7677 389.498 24.062L389.493 24.0668C387.25 26.416 385.024 28.7478 383.294 33.5613C381.893 34.0875 380.491 34.5313 379.106 34.9701L379.101 34.9716L379.1 34.9719C377.537 35.4668 375.994 35.9555 374.493 36.549C373.15 37.2959 371.808 37.2959 370.465 36.1756C369.122 35.0552 367.631 34.6818 366.587 36.9225C363.752 42.5243 360.918 41.4039 357.785 38.0428C357.662 37.8881 357.513 37.7975 357.338 37.6914L357.336 37.6904C357.09 37.5405 356.791 37.3591 356.443 36.9225C353.907 39.1632 351.222 38.7897 349.133 32.8145C347.066 34.165 345.485 31.9882 343.838 29.7184C342.752 28.2222 341.636 26.6857 340.332 26.0923C338.411 29.0778 336.195 28.822 333.96 28.564C331.162 28.2411 328.334 27.9146 326.012 33.9348C324.073 32.441 322.133 32.441 320.343 34.3082C319.629 33.3451 318.925 32.2171 318.226 31.0972L318.217 31.0834C315.125 26.1292 312.14 21.3458 308.857 31.6941C307.74 32.5678 306.95 30.9888 306.196 29.4818C305.339 27.7682 304.528 26.1473 303.338 28.333C301.731 22.5014 299.39 22.8417 297.105 23.1736C295.146 23.4582 293.229 23.7367 291.852 20.117C291.095 20.4614 290.592 21.3616 290.065 22.3051C289.449 23.4077 288.8 24.5693 287.675 24.9718C286.897 24.6282 286.05 23.7577 285.161 22.845L285.156 22.8393C283.15 20.7778 280.94 18.5066 278.874 21.6108C277.382 23.478 275.741 23.478 274.1 22.3577C272.608 21.2373 271.117 21.2373 269.625 21.6108C268.74 23.2742 267.853 24.7319 266.906 26.2892L266.901 26.2973L266.899 26.3014L266.898 26.3031L266.895 26.3085C266.57 26.8429 266.238 27.3891 265.896 27.9595C261.719 26.4657 257.84 28.7064 254.111 33.1879C253.962 33.1879 253.813 33.5613 253.813 33.5613C249.889 33.5613 245.965 32.2024 242.088 30.8593C240.216 30.2109 238.354 29.5662 236.509 29.0799C235.965 28.6907 235.556 28.1557 235.135 27.6035L235.124 27.589C234.873 27.261 234.619 26.9272 234.326 26.6143C233.865 26.2306 233.431 25.7728 233.016 25.3345C231.73 23.977 230.621 22.8056 229.391 24.5985Z" fill="#FDFAF3"/>
</svg>
