<svg width="1440" height="41" viewBox="0 0 1440 41" fill="none" xmlns="http://www.w3.org/2000/svg">
<g clip-path="url(#clip0_120_3911)">
<path d="M216.477 24.702C215.096 26.5167 214.034 26.9205 212.963 27.3274C211.83 27.7579 210.688 28.192 209.151 30.3038C204.517 21.7143 199.733 19.4736 194.949 20.9674C193.902 21.3408 192.856 22.8347 192.108 25.0754C191.267 27.5597 190.347 26.9148 189.389 26.2431C188.475 25.6021 187.526 24.9368 186.577 26.9427H183.437C182.668 27.904 182.136 27.3806 181.597 26.8502C181.089 26.3505 180.575 25.8446 179.849 26.5692C178.369 27.8017 176.844 27.7914 175.323 27.7811C174.079 27.7727 172.838 27.7643 171.627 28.4365C170.038 28.8946 168.498 30.1019 166.948 31.3182C164.706 33.0765 162.44 34.8533 159.966 34.4118C157.715 34.1775 155.582 33.2083 153.455 32.2419L153.452 32.2405C152.191 31.6669 150.931 31.0944 149.651 30.6773L149.587 30.664C147.818 30.2953 146.193 29.9567 144.568 32.1711C143.073 34.7853 141.129 35.1587 139.485 33.6649C137.093 31.0507 135 31.4242 133.206 36.6525H132.608C129.75 35.4108 127.408 31.5884 125.325 28.1887L125.303 28.1529C124.888 27.4753 124.483 26.815 124.086 26.1958C122.293 26.4757 121.508 29.0637 120.786 31.4433C120.546 32.2378 120.312 33.0106 120.05 33.6649C119.52 34.0064 118.99 34.3675 118.461 34.7285L118.423 34.7542C114.337 37.5429 110.291 40.3036 106.595 34.0383C104.941 34.0383 104.1 36.07 103.473 37.5858C103.25 38.1252 103.054 38.5992 102.857 38.8932C100.165 41.1355 97.8837 39.8251 95.7697 38.6107C93.6607 37.3982 91.7177 36.2813 89.7017 38.8932C89.2817 37.5829 88.8617 36.0885 88.3907 34.4103C88.1907 33.6971 87.9807 32.9507 87.7577 32.1711C85.9857 33.4108 84.3137 32.3829 82.7117 31.3974C80.9347 30.3047 79.2427 29.2643 77.5917 31.4242C76.7767 31.0167 76.2277 29.9427 75.6797 28.8686L75.6757 28.8608C75.2187 27.9684 74.7627 27.077 74.1537 26.5692C71.9107 27.3161 69.5187 26.9433 67.4257 22.4619C66.2297 23.582 65.0337 24.7022 63.9877 25.8223C62.6097 25.5575 61.3067 24.3541 60.0327 23.1769L60.0317 23.1756C57.7107 21.0327 55.4857 18.9785 53.0737 22.8347C49.5467 19.8976 46.1287 20.5142 42.7217 21.1289L42.7197 21.1293C40.4947 21.5306 38.2747 21.9308 36.0307 21.3408C35.7867 21.273 35.5417 21.1991 35.2957 21.1248L35.2717 21.1175L35.2707 21.1174C32.8167 20.3761 30.3317 19.6256 28.7057 24.702C26.9477 25.1202 25.5187 23.5478 24.1277 22.0174L24.1247 22.0147L24.1217 22.0118C23.0307 20.8111 21.9647 19.6377 20.7827 19.4736C20.0397 19.4736 19.4787 20.3842 18.8997 21.3256L18.8947 21.3345C18.4247 22.0955 17.9447 22.8749 17.3437 23.2081C15.4837 22.9401 13.6327 22.3088 11.8107 21.6874C6.01669 19.7111 0.514709 17.8348 -4.0343 28.063C-5.07129 27.8472 -5.6593 26.508 -6.20129 25.2722C-6.59628 24.3702 -6.96832 23.5233 -7.47232 23.2081C-8.33633 22.399 -9.20029 22.5638 -10.0073 22.7178L-10.0093 22.7181C-10.3193 22.7772 -10.6213 22.8347 -10.9113 22.8347C-12.4063 22.8347 -14.2003 22.4612 -15.0973 19.847C-17.3083 14.0718 -19.9933 14.712 -22.9233 15.4111C-24.3513 15.7516 -25.8373 16.1061 -27.3563 15.7391C-28.1543 18.7273 -29.4193 20.2277 -30.7213 21.7711L-30.7223 21.7728C-31.8613 23.122 -33.0273 24.5044 -33.9343 26.9427C-34.9803 26.1958 -35.8773 25.4489 -36.6253 24.702C-38.1203 25.0754 -38.8673 26.9427 -39.6153 29.1834C-42.1563 26.5692 -46.3423 23.2081 -48.8843 21.7143C-49.4483 21.3739 -49.9803 21.0271 -50.4863 20.6971C-53.8653 18.493 -56.0983 17.0365 -59.3493 23.2081C-61.7413 27.6896 -64.5813 29.1834 -67.4223 29.5569C-71.7573 29.9303 -75.7933 32.1711 -79.8303 34.7853C-82.0653 36.3081 -84.3003 35.5886 -86.5823 34.854C-87.6583 34.5077 -88.7453 34.158 -89.8463 34.0383C-90.3793 33.9225 -90.9123 33.7708 -91.4443 33.6193L-91.4533 33.6169C-94.3463 32.7925 -97.1893 31.9822 -99.7133 37.026C-100.925 36.3274 -101.207 34.1768 -101.501 31.9324L-101.502 31.9244C-101.68 30.5717 -101.862 29.1856 -102.255 28.063C-103.451 26.5692 -105.095 24.702 -106.74 22.8347C-109.738 24.7071 -112.66 23.1309 -115.614 21.5367L-115.625 21.5307C-116.792 20.9012 -117.964 20.2695 -119.148 19.847C-120.317 21.5731 -121.562 22.8744 -122.802 24.1704C-125.05 26.5195 -127.281 28.8514 -129.015 33.6649C-130.421 34.1917 -131.827 34.6361 -133.218 35.0754L-133.228 35.0786C-134.791 35.5725 -136.334 36.0603 -137.835 36.6525C-139.181 37.3994 -140.527 37.3994 -141.872 36.2791C-143.217 35.1587 -144.712 34.7853 -145.759 37.026C-148.599 42.6278 -151.44 41.5075 -154.579 38.1463C-154.702 37.9924 -154.852 37.9019 -155.026 37.7964L-155.028 37.7949C-155.276 37.6448 -155.575 37.4635 -155.925 37.026C-158.466 39.2667 -161.157 38.8933 -163.25 32.918C-165.322 34.268 -166.905 32.0936 -168.556 29.8248L-168.558 29.8219C-169.646 28.3258 -170.764 26.7892 -172.071 26.1958C-173.996 29.1813 -176.217 28.9256 -178.457 28.6676C-181.261 28.3447 -184.096 28.0182 -186.423 34.0383C-188.367 32.5445 -190.31 32.5445 -192.104 34.4118C-192.822 33.4455 -193.531 32.3133 -194.233 31.1898L-194.235 31.1869C-197.334 26.2325 -200.325 21.4489 -203.615 31.7976C-204.735 32.6714 -205.527 31.0918 -206.282 29.5846C-207.141 27.871 -207.954 26.251 -209.147 28.4365C-210.757 22.605 -213.104 22.9452 -215.394 23.2771C-217.357 23.5617 -219.278 23.8402 -220.658 20.2205C-221.416 20.5649 -221.92 21.4651 -222.449 22.4086C-223.066 23.5112 -223.716 24.6729 -224.844 25.0754C-225.625 24.7311 -226.477 23.8579 -227.368 22.9433C-229.379 20.8818 -231.594 18.6102 -233.665 21.7143C-235.16 23.5816 -236.804 23.5816 -238.449 22.4612C-239.944 21.3408 -242.539 21.3408 -244.034 21.7143C-244.925 23.3827 -245.815 24.844 -246.767 26.4066C-247.094 26.9422 -247.428 27.4913 -247.772 28.063C-251.958 26.5692 -255.845 28.81 -259.582 33.2914C-259.732 33.2914 -259.881 33.6649 -259.881 33.6649C-263.813 33.6649 -267.746 32.3059 -271.632 30.9627L-271.633 30.9624C-273.509 30.3142 -275.374 29.6697 -277.223 29.1834C-277.629 28.8935 -277.99 28.5792 -278.333 28.2813C-278.872 27.8116 -279.365 27.3826 -279.914 27.1542L-279.914 0.947266H1720.09V27.1541C1719.42 26.7318 1718.81 26.0927 1718.23 25.4848L1718.19 25.4381C1716.91 24.0803 1715.8 22.9089 1714.57 24.702C1713.19 26.5167 1712.13 26.9205 1711.06 27.3274C1709.93 27.7579 1708.79 28.192 1707.26 30.3038C1702.64 21.7143 1697.86 19.4736 1693.09 20.9674C1692.05 21.3408 1691 22.8347 1690.26 25.0754C1689.42 27.5589 1688.5 26.9152 1687.54 26.2438C1686.63 25.6028 1685.68 24.9368 1684.74 26.9427H1681.6C1680.84 27.904 1680.3 27.3806 1679.77 26.8502L1679.76 26.8439C1679.26 26.3462 1678.75 25.8475 1678.02 26.5692C1676.55 27.8017 1675.02 27.7914 1673.51 27.7811C1672.27 27.7727 1671.03 27.7643 1669.82 28.4365C1668.24 28.8906 1666.73 30.0812 1665.19 31.2867L1665.14 31.3242C1662.9 33.0805 1660.65 34.8528 1658.18 34.4118C1655.95 34.1783 1653.83 33.215 1651.71 32.2519L1651.68 32.2405C1650.43 31.6669 1649.17 31.0944 1647.89 30.6773L1647.83 30.6641C1646.06 30.2956 1644.44 29.9578 1642.82 32.1711C1641.33 34.7853 1639.39 35.1587 1637.75 33.6649C1635.36 31.0507 1633.27 31.4242 1631.48 36.6525H1630.89C1628.04 35.4157 1625.72 31.6189 1623.64 28.2294L1623.62 28.1886L1623.61 28.1773C1623.19 27.4912 1622.78 26.8225 1622.38 26.1958C1620.59 26.4751 1619.81 29.0553 1619.09 31.431V31.4463L1619.06 31.5362C1618.83 32.2984 1618.61 33.0357 1618.35 33.6649C1617.82 34.0048 1617.3 34.3641 1616.78 34.7234L1616.73 34.7542L1616.72 34.76C1612.64 37.5467 1608.62 40.2993 1604.93 34.0383C1603.28 34.0383 1602.44 36.0592 1601.82 37.5738L1601.79 37.6474C1601.58 38.1612 1601.39 38.6105 1601.2 38.8932C1598.51 41.1332 1596.25 39.8278 1594.14 38.6144L1594.13 38.61C1592.02 37.3979 1590.08 36.2822 1588.07 38.8932C1587.66 37.5861 1587.24 36.096 1586.77 34.4228V34.4117C1586.57 33.6981 1586.36 32.9512 1586.13 32.1711C1584.37 33.4108 1582.7 32.3829 1581.1 31.3974C1579.33 30.3047 1577.64 29.2643 1575.99 31.4242C1575.18 31.0168 1574.63 29.9431 1574.08 28.8693C1573.63 27.9742 1573.17 27.0785 1572.56 26.5692C1570.32 27.3161 1567.93 26.9427 1565.85 22.4612C1564.65 23.5816 1563.46 24.702 1562.42 25.8223C1561.04 25.5576 1559.74 24.3539 1558.47 23.1769L1558.46 23.1718C1556.15 21.0303 1553.93 18.9808 1551.53 22.8347C1548.01 19.8976 1544.6 20.5142 1541.2 21.1289C1538.98 21.5303 1536.76 21.931 1534.52 21.3408C1534.35 21.2934 1534.18 21.2428 1534.01 21.1913L1533.76 21.1174C1531.31 20.3761 1528.83 19.6256 1527.21 24.702C1525.46 25.1204 1524.03 23.5459 1522.64 22.0147L1522.62 21.9954C1521.54 20.8004 1520.48 19.6369 1519.3 19.4736C1518.56 19.4736 1518 20.3842 1517.43 21.3256L1517.42 21.3396C1516.95 22.099 1516.48 22.8756 1515.87 23.2081C1514.02 22.9401 1512.17 22.3088 1510.35 21.6873C1504.57 19.711 1499.08 17.8349 1494.54 28.063C1493.51 27.8472 1492.92 26.508 1492.38 25.2722C1491.99 24.3702 1491.62 23.5233 1491.11 23.2081C1490.25 22.4001 1489.39 22.5633 1488.58 22.7172L1488.57 22.7188C1488.27 22.7777 1487.97 22.8347 1487.68 22.8347C1486.19 22.8347 1484.4 22.4612 1483.5 19.847C1481.3 14.0726 1478.62 14.7119 1475.69 15.4108C1474.27 15.7513 1472.79 16.1061 1471.27 15.7391C1470.48 18.7172 1469.22 20.2176 1467.92 21.7554L1467.91 21.7728L1467.87 21.815C1466.76 23.151 1465.6 24.5298 1464.71 26.9427C1463.66 26.1958 1462.77 25.4489 1462.02 24.702C1460.53 25.0754 1459.79 26.9427 1459.04 29.1834C1456.5 26.5692 1452.33 23.2081 1449.79 21.7143C1449.3 21.4181 1448.84 21.117 1448.39 20.8264L1448.19 20.6971C1444.82 18.493 1442.59 17.0365 1439.35 23.2081C1436.96 27.6896 1434.13 29.1834 1431.29 29.5569C1426.97 29.9303 1422.94 32.1711 1418.91 34.7853C1416.68 36.3074 1414.45 35.5892 1412.17 34.855C1411.1 34.5087 1410.02 34.158 1408.92 34.0383C1408.42 33.9311 1407.93 33.7929 1407.44 33.6528L1407.31 33.6169C1404.43 32.7925 1401.59 31.9822 1399.07 37.026C1397.86 36.3274 1397.58 34.1769 1397.29 31.9324L1397.28 31.8563C1397.1 30.5254 1396.92 29.1668 1396.54 28.063C1395.34 26.5708 1393.71 24.7058 1392.07 22.8404L1392.06 22.8347C1389.07 24.7071 1386.15 23.1305 1383.21 21.5364L1383.17 21.513C1382.01 20.8894 1380.86 20.2656 1379.68 19.847C1378.51 21.5731 1377.27 22.8744 1376.03 24.1703C1373.79 26.5195 1371.57 28.8513 1369.83 33.6649C1368.43 34.1918 1367.03 34.636 1365.64 35.0754C1364.08 35.5703 1362.54 36.059 1361.03 36.6525C1359.69 37.3994 1358.35 37.3994 1357.01 36.2791C1355.66 35.1587 1354.17 34.7853 1353.13 37.026C1350.29 42.6278 1347.46 41.5075 1344.33 38.1463C1344.2 37.9975 1344.06 37.9079 1343.9 37.8068L1343.88 37.7949C1343.63 37.6448 1343.33 37.4635 1342.98 37.026C1340.45 39.2667 1337.76 38.8933 1335.67 32.918C1333.61 34.2674 1332.03 32.0954 1330.38 29.8276V29.8219L1330.35 29.7748C1329.27 28.2936 1328.17 26.783 1326.87 26.1958C1324.95 29.1803 1322.74 28.9258 1320.5 28.6678C1317.7 28.3449 1314.87 28.0182 1312.55 34.0383C1310.61 32.5445 1308.67 32.5445 1306.88 34.4118C1306.17 33.4446 1305.46 32.3113 1304.76 31.1869C1301.67 26.2325 1298.68 21.4489 1295.4 31.7976C1294.28 32.6714 1293.49 31.0918 1292.74 29.5846V29.5779C1291.88 27.8667 1291.07 26.2537 1289.88 28.4365C1288.27 22.605 1285.93 22.9452 1283.65 23.2771C1281.69 23.5617 1279.77 23.8402 1278.39 20.2205C1277.64 20.5649 1277.13 21.4652 1276.61 22.4086L1276.6 22.4202C1275.99 23.5194 1275.34 24.6743 1274.22 25.0754C1273.44 24.7311 1272.59 23.8576 1271.7 22.9428L1271.69 22.9377C1269.69 20.8775 1267.48 18.6128 1265.41 21.7143C1263.92 23.5816 1262.28 23.5816 1260.64 22.4612C1259.15 21.3408 1257.66 21.3408 1256.17 21.7143C1255.28 23.3755 1254.4 24.8331 1253.45 26.3881L1253.44 26.4066L1253.42 26.4306L1253.25 26.7043C1252.99 27.1455 1252.71 27.5962 1252.44 28.063C1248.26 26.5692 1244.38 28.81 1240.65 33.2914C1240.5 33.2914 1240.35 33.6649 1240.35 33.6649C1236.44 33.6649 1232.52 32.3099 1228.65 30.9687L1228.63 30.9628C1226.76 30.3144 1224.9 29.6697 1223.05 29.1834C1222.51 28.7943 1222.1 28.2597 1221.68 27.7075L1221.6 27.6093C1221.37 27.3083 1221.13 27.0043 1220.87 26.7178C1220.41 26.3341 1219.97 25.8764 1219.56 25.4381C1218.27 24.0819 1217.16 22.9106 1215.93 24.702C1214.55 26.5167 1213.49 26.9205 1212.42 27.3274L1212.41 27.3308C1211.28 27.7602 1210.14 28.1975 1208.61 30.3038C1203.97 21.7143 1199.19 19.4736 1194.4 20.9674C1193.36 21.3408 1192.31 22.8347 1191.56 25.0754C1190.72 27.5588 1189.8 26.9153 1188.84 26.2438C1187.93 25.6028 1186.98 24.9368 1186.03 26.9427H1182.89C1182.12 27.9024 1181.59 27.3823 1181.05 26.8529L1181.04 26.8439C1180.54 26.3462 1180.03 25.8475 1179.3 26.5692C1177.82 27.8017 1176.3 27.7914 1174.78 27.7811C1173.53 27.7727 1172.29 27.7643 1171.08 28.4365C1169.49 28.8946 1167.95 30.102 1166.4 31.3182L1166.39 31.3243C1164.15 33.0806 1161.9 34.8528 1159.42 34.4118C1157.17 34.1774 1155.03 33.2074 1152.91 32.2405C1151.65 31.6669 1150.39 31.0944 1149.11 30.6773L1149.04 30.664C1147.27 30.2955 1145.65 29.9578 1144.02 32.1711C1142.53 34.7853 1140.58 35.1587 1138.94 33.6649C1136.55 31.0507 1134.45 31.4242 1132.66 36.6525H1132.06C1129.2 35.4109 1126.86 31.5889 1124.78 28.1893C1124.36 27.499 1123.95 26.8261 1123.54 26.1958C1121.75 26.4758 1120.96 29.0648 1120.24 31.4449L1120.21 31.5353C1119.98 32.2978 1119.76 33.0355 1119.5 33.6649C1118.98 34.0048 1118.45 34.3641 1117.93 34.7234L1117.88 34.7542L1117.87 34.7599C1113.78 37.5467 1109.75 40.2993 1106.05 34.0383C1104.4 34.0383 1103.56 36.0592 1102.94 37.5737L1102.93 37.5859L1102.85 37.7841C1102.65 38.2405 1102.49 38.6358 1102.31 38.8932C1099.62 41.133 1097.35 39.8281 1095.23 38.6148L1095.22 38.61C1093.12 37.3975 1091.17 36.2813 1089.16 38.8932C1088.74 37.5834 1088.32 36.0899 1087.85 34.4126C1087.65 33.6987 1087.44 32.9515 1087.21 32.1711C1085.44 33.4108 1083.77 32.3829 1082.17 31.3974L1082.16 31.3941C1080.39 30.3027 1078.7 29.2664 1077.05 31.4242C1076.23 31.0168 1075.68 29.9431 1075.13 28.8692C1074.68 27.9742 1074.22 27.0785 1073.61 26.5692C1071.37 27.3161 1068.97 26.9427 1066.88 22.4612L1066.65 22.6733C1065.54 23.723 1064.42 24.7727 1063.44 25.8223C1062.06 25.5575 1060.76 24.3541 1059.49 23.1769C1057.17 21.0336 1054.94 18.9777 1052.53 22.8347C1049 19.8976 1045.58 20.5142 1042.18 21.1289L1042.17 21.1302C1039.95 21.5312 1037.73 21.9303 1035.49 21.3408C1035.23 21.2708 1034.98 21.1942 1034.73 21.1174C1032.27 20.3765 1029.79 19.6284 1028.16 24.702C1026.4 25.1204 1024.97 23.5459 1023.58 22.0146C1022.49 20.8129 1021.42 19.6378 1020.24 19.4736C1019.49 19.4736 1018.93 20.382 1018.35 21.3222L1018.34 21.3392C1017.87 22.0987 1017.4 22.8756 1016.8 23.2081C1014.94 22.9401 1013.09 22.3088 1011.27 21.6873C1005.47 19.7114 999.966 17.8367 995.416 28.063C994.396 27.8507 993.816 26.5521 993.276 25.3336L993.246 25.2721C992.856 24.3702 992.486 23.5233 991.976 23.2081C991.116 22.4001 990.256 22.5633 989.446 22.7172C989.136 22.7764 988.826 22.8347 988.536 22.8347C987.046 22.8347 985.256 22.4612 984.356 19.847C982.146 14.0718 979.456 14.712 976.526 15.4111L976.516 15.4138C975.086 15.7536 973.616 16.1051 972.096 15.7391C971.296 18.7284 970.036 20.2289 968.726 21.7728C967.586 23.122 966.426 24.5044 965.516 26.9427C964.466 26.1958 963.576 25.4489 962.826 24.702C961.336 25.0754 960.586 26.9427 959.836 29.1834C957.296 26.5692 953.106 23.2081 950.566 21.7143C950.076 21.4181 949.616 21.117 949.166 20.8264L948.966 20.6971C945.586 18.494 943.356 17.0382 940.106 23.2081C937.706 27.6896 934.866 29.1834 932.026 29.5569C927.696 29.9303 923.656 32.1711 919.626 34.7853C917.386 36.3081 915.146 35.5886 912.866 34.854C911.796 34.5077 910.706 34.158 909.606 34.0383C909.106 33.9311 908.616 33.7931 908.126 33.653L907.996 33.6169C905.106 32.7925 902.266 31.9822 899.736 37.026C898.536 36.332 898.246 34.2052 897.956 31.9768L897.946 31.9324C897.776 30.5772 897.586 29.1878 897.196 28.063C895.996 26.5695 894.356 24.7027 892.716 22.8358C889.716 24.7063 886.806 23.1341 883.846 21.5416L883.836 21.5367C882.666 20.9052 881.486 20.2709 880.306 19.847C879.146 21.5561 877.906 22.8486 876.686 24.1319L876.646 24.1704L876.606 24.2109C874.376 26.5464 872.156 28.879 870.436 33.6649C869.026 34.1917 867.626 34.636 866.236 35.0754C864.666 35.5703 863.116 36.059 861.616 36.6525C860.266 37.3994 858.926 37.3994 857.576 36.2791C856.236 35.1587 854.736 34.7853 853.696 37.026C850.856 42.6278 848.016 41.5075 844.876 38.1463C844.756 37.9976 844.606 37.9081 844.446 37.807L844.426 37.7949C844.176 37.6447 843.876 37.4635 843.526 37.026C840.986 39.2667 838.296 38.8933 836.196 32.918C834.126 34.2674 832.546 32.0952 830.896 29.8274V29.8219C829.806 28.3258 828.686 26.7892 827.376 26.1958C825.456 29.1813 823.236 28.9256 820.996 28.6676C818.186 28.3447 815.356 28.0194 813.026 34.0383C811.086 32.5445 809.146 32.5445 807.346 34.4118C806.626 33.4447 805.916 32.3114 805.216 31.187C802.116 26.2343 799.126 21.4522 795.836 31.7976C794.716 32.6678 793.936 31.1047 793.176 29.6032L793.166 29.5845V29.5779C792.306 27.8667 791.496 26.2537 790.306 28.4365C788.696 22.605 786.346 22.9452 784.056 23.2771C782.096 23.5617 780.176 23.8402 778.796 20.2205C778.036 20.5649 777.526 21.4652 777.006 22.4086L776.996 22.4201C776.386 23.5193 775.736 24.6743 774.606 25.0754C773.826 24.7311 772.976 23.8576 772.086 22.9428C770.076 20.8813 767.856 18.6102 765.786 21.7143C764.296 23.5816 762.646 23.5816 761.006 22.4612C759.506 21.3408 756.916 21.3408 755.416 21.7143C754.536 23.3607 753.656 24.8054 752.726 26.3449L752.686 26.4083C752.496 26.72 752.306 27.0356 752.106 27.3578C751.966 27.5892 751.826 27.824 751.676 28.063C747.496 26.5692 743.606 28.81 739.866 33.2914C739.716 33.2914 739.566 33.6649 739.566 33.6649C735.646 33.6649 731.716 32.31 727.836 30.9688L727.816 30.9627C725.946 30.3144 724.076 29.6697 722.226 29.1834C721.656 28.7791 721.246 28.2177 720.806 27.622L720.776 27.5871L720.716 27.5003C720.366 27.033 720 26.5498 719.537 26.1089C719.284 25.8707 719.039 25.6175 718.8 25.3739L718.781 25.3551C717.478 24.0268 716.359 22.8865 715.116 24.702C713.738 26.5167 712.678 26.9205 711.61 27.3274C710.479 27.7579 709.34 28.192 707.806 30.3038C703.182 21.7143 698.408 19.4736 693.635 20.9674C692.591 21.3408 691.546 22.8347 690.801 25.0754C689.961 27.5597 689.043 26.9148 688.087 26.2431C687.175 25.6021 686.228 24.9368 685.281 26.9427H682.149C681.381 27.904 680.85 27.3806 680.312 26.8502C679.805 26.3504 679.292 25.8445 678.568 26.5692C677.092 27.8017 675.57 27.7914 674.052 27.7811C672.811 27.7727 671.572 27.7643 670.364 28.4365C668.778 28.8946 667.242 30.102 665.695 31.3182L665.694 31.3193C663.457 33.0772 661.197 34.8532 658.729 34.4118C656.482 34.1774 654.352 33.2074 652.229 32.2405C650.97 31.6669 649.713 31.0944 648.436 30.6773L648.373 30.6641C646.607 30.2953 644.986 29.9567 643.364 32.1711C641.872 34.7853 639.933 35.1587 638.292 33.6649C635.905 31.0507 633.817 31.4242 632.027 36.6525H631.43C628.58 35.4116 626.245 31.5936 624.167 28.1957L624.163 28.1889L624.161 28.1848C623.74 27.4961 623.329 26.8247 622.927 26.1958C621.138 26.4757 620.355 29.0643 619.635 31.4441L619.634 31.4472C619.394 32.2409 619.161 33.0113 618.9 33.6649C618.359 34.014 617.819 34.3835 617.28 34.7525L617.277 34.7542C613.199 37.5429 609.162 40.3036 605.474 34.0383C603.824 34.0383 602.985 36.07 602.359 37.5858L602.35 37.6076C602.131 38.1379 601.938 38.6032 601.745 38.8932C599.058 41.1359 596.781 39.8246 594.672 38.61C592.568 37.3975 590.63 36.2813 588.618 38.8932C588.2 37.5845 587.781 36.0924 587.312 34.4168L587.311 34.4135C587.111 33.6994 586.901 32.9519 586.679 32.1711C584.91 33.4108 583.242 32.3829 581.643 31.3974C579.87 30.3049 578.182 29.2644 576.535 31.4242C575.721 31.0168 575.174 29.9429 574.627 28.8689L574.623 28.8615C574.168 27.9688 573.712 27.0771 573.104 26.5692C570.866 27.3161 568.48 26.9427 566.391 22.4612C565.198 23.5816 564.005 24.702 562.96 25.8223C561.585 25.5575 560.285 24.3541 559.014 23.1769C556.699 21.0336 554.478 18.9777 552.071 22.8347C548.551 19.8976 545.141 20.5142 541.741 21.1289C539.52 21.5303 537.304 21.9309 535.065 21.3408C534.815 21.271 534.561 21.1943 534.308 21.1179C531.859 20.3766 529.378 19.6256 527.756 24.702C526.001 25.1204 524.573 23.5459 523.185 22.0147C522.096 20.8129 521.03 19.6378 519.85 19.4736C519.109 19.4736 518.549 20.3841 517.971 21.3256C517.502 22.0894 517.02 22.8736 516.419 23.2081C514.563 22.9401 512.716 22.3088 510.898 21.6873C505.116 19.711 499.627 17.8348 495.087 28.063C494.053 27.8472 493.466 26.508 492.925 25.2722C492.531 24.3702 492.16 23.5233 491.656 23.2081C490.795 22.399 489.933 22.5638 489.127 22.7178L489.125 22.7181C488.816 22.7772 488.515 22.8347 488.226 22.8347C486.734 22.8347 484.944 22.4612 484.049 19.847C481.842 14.0718 479.164 14.712 476.24 15.4111C474.815 15.7516 473.332 16.1061 471.817 15.7391C471.021 18.7273 469.758 20.2278 468.458 21.7711L468.457 21.7728C467.321 23.122 466.157 24.5044 465.253 26.9427C464.209 26.1958 463.314 25.4489 462.568 24.702C461.076 25.0754 460.33 26.9427 459.585 29.1834C457.049 26.5692 452.872 23.2081 450.336 21.7143C449.773 21.3739 449.242 21.0271 448.737 20.6971C445.366 18.4933 443.138 17.0371 439.894 23.2081C437.507 27.6896 434.673 29.1834 431.839 29.5569C427.513 29.9303 423.485 32.1711 419.457 34.7853C417.227 36.3081 414.997 35.5886 412.72 34.854C411.646 34.5078 410.561 34.1579 409.463 34.0383C408.928 33.9219 408.393 33.7692 407.86 33.6169C404.973 32.7925 402.136 31.9822 399.617 37.026C398.408 36.3274 398.127 34.1767 397.834 31.9323L397.831 31.9087C397.654 30.561 397.473 29.1813 397.082 28.063C395.89 26.5714 394.252 24.7074 392.614 22.8429L392.609 22.8375L392.606 22.8347C389.615 24.7069 386.701 23.1312 383.752 21.5373L383.751 21.5367L383.749 21.5355C382.581 20.9044 381.409 20.2706 380.225 19.847C379.06 21.5708 377.819 22.8712 376.584 24.1655L376.579 24.1704C374.336 26.5195 372.11 28.8514 370.38 33.6649C368.979 34.191 367.577 34.6348 366.192 35.0736L366.187 35.0751L366.186 35.0754C364.623 35.5703 363.08 36.059 361.579 36.6525C360.236 37.3994 358.894 37.3994 357.551 36.2791C356.208 35.1587 354.717 34.7853 353.673 37.026C350.838 42.6278 348.004 41.5075 344.871 38.1463C344.748 37.9917 344.599 37.901 344.424 37.7949L344.422 37.7939C344.176 37.644 343.877 37.4626 343.529 37.026C340.993 39.2667 338.308 38.8933 336.219 32.918C334.152 34.2685 332.571 32.0917 330.924 29.8219C329.838 28.3258 328.722 26.7892 327.418 26.1958C325.497 29.1813 323.281 28.9256 321.046 28.6676C318.248 28.3447 315.42 28.0182 313.098 34.0383C311.159 32.5445 309.219 32.5445 307.429 34.4118C306.715 33.4486 306.011 32.3207 305.312 31.2008L305.303 31.1869C302.211 26.2327 299.226 21.4493 295.943 31.7976C294.826 32.6713 294.036 31.0924 293.282 29.5854C292.425 27.8717 291.614 26.2509 290.424 28.4365C288.817 22.605 286.476 22.9452 284.191 23.2771C282.232 23.5617 280.315 23.8402 278.938 20.2205C278.181 20.5649 277.678 21.4652 277.151 22.4086C276.535 23.5113 275.886 24.6729 274.761 25.0754C273.983 24.7318 273.136 23.8612 272.247 22.9485L272.242 22.9428C270.236 20.8813 268.026 18.6102 265.96 21.7143C264.468 23.5816 262.827 23.5816 261.186 22.4612C259.694 21.3408 258.203 21.3408 256.711 21.7143C255.826 23.3777 254.939 24.8354 253.992 26.3927L253.987 26.4008L253.985 26.4049L253.984 26.4066L253.981 26.4121C253.656 26.9464 253.324 27.4926 252.982 28.063C248.805 26.5692 244.926 28.81 241.197 33.2914C241.048 33.2914 240.899 33.6649 240.899 33.6649C236.975 33.6649 233.051 32.3059 229.174 30.9628C227.302 30.3144 225.44 29.6697 223.595 29.1834C223.051 28.7942 222.642 28.2593 222.221 27.7071L222.21 27.6925C221.959 27.3645 221.705 27.0307 221.412 26.7179C220.951 26.3341 220.517 25.8764 220.102 25.4381C218.816 24.0805 217.707 22.9091 216.477 24.702Z" fill="#CFFDE1"/>
</g>
<defs>
<clipPath id="clip0_120_3911">
<rect width="2000" height="40" fill="white" transform="matrix(1 0 0 -1 -279.914 40.9473)"/>
</clipPath>
</defs>
</svg>
