<svg width="1440" height="41" viewBox="0 0 1440 41" fill="none" xmlns="http://www.w3.org/2000/svg">
<g clip-path="url(#clip0_101_3363)">
<path d="M228.391 24.702C227.01 26.5167 225.948 26.9205 224.877 27.3274C223.744 27.7579 222.602 28.192 221.065 30.3038C216.431 21.7143 211.647 19.4736 206.863 20.9674C205.816 21.3408 204.77 22.8347 204.022 25.0754C203.181 27.5597 202.261 26.9148 201.303 26.2431C200.389 25.6021 199.44 24.9368 198.491 26.9427H195.351C194.582 27.904 194.05 27.3806 193.511 26.8502C193.003 26.3505 192.489 25.8446 191.763 26.5692C190.283 27.8017 188.758 27.7914 187.237 27.7811C185.993 27.7727 184.752 27.7643 183.541 28.4365C181.952 28.8946 180.412 30.1019 178.862 31.3182C176.62 33.0765 174.354 34.8533 171.88 34.4118C169.629 34.1775 167.496 33.2083 165.369 32.2419L165.366 32.2405C164.105 31.6669 162.845 31.0944 161.565 30.6773L161.501 30.664C159.732 30.2953 158.107 29.9567 156.482 32.1711C154.987 34.7853 153.043 35.1587 151.399 33.6649C149.007 31.0507 146.914 31.4242 145.12 36.6525H144.522C141.664 35.4108 139.322 31.5884 137.239 28.1887L137.217 28.1529C136.802 27.4753 136.397 26.815 136 26.1958C134.207 26.4757 133.422 29.0637 132.7 31.4433C132.46 32.2378 132.226 33.0106 131.964 33.6649C131.434 34.0064 130.904 34.3675 130.375 34.7285L130.337 34.7542C126.251 37.5429 122.205 40.3036 118.509 34.0383C116.855 34.0383 116.014 36.07 115.387 37.5858C115.164 38.1252 114.968 38.5992 114.771 38.8932C112.079 41.1355 109.798 39.8251 107.684 38.6107C105.575 37.3982 103.632 36.2813 101.616 38.8932C101.196 37.5829 100.776 36.0885 100.305 34.4103C100.105 33.6971 99.8947 32.9507 99.6718 32.1711C97.8997 33.4108 96.2278 32.3829 94.6258 31.3974C92.8488 30.3047 91.1568 29.2643 89.5058 31.4242C88.6908 31.0167 88.1418 29.9427 87.5938 28.8686L87.5898 28.8608C87.1328 27.9684 86.6768 27.077 86.0677 26.5692C83.8247 27.3161 81.4327 26.9433 79.3398 22.4619C78.1437 23.582 76.9478 24.7022 75.9018 25.8223C74.5238 25.5575 73.2207 24.3541 71.9467 23.1769L71.9458 23.1756C69.6248 21.0327 67.3997 18.9785 64.9878 22.8347C61.4608 19.8976 58.0428 20.5142 54.6357 21.1289L54.6338 21.1293C52.4088 21.5306 50.1888 21.9308 47.9448 21.3408C47.7008 21.273 47.4557 21.1991 47.2097 21.1248L47.1858 21.1175L47.1848 21.1174C44.7307 20.3761 42.2458 19.6256 40.6198 24.702C38.8618 25.1202 37.4327 23.5478 36.0417 22.0174L36.0388 22.0147L36.0358 22.0118C34.9448 20.8111 33.8788 19.6377 32.6967 19.4736C31.9537 19.4736 31.3928 20.3842 30.8138 21.3256L30.8087 21.3345C30.3387 22.0955 29.8588 22.8749 29.2578 23.2081C27.3978 22.9401 25.5468 22.3088 23.7248 21.6874C17.9308 19.7111 12.4288 17.8348 7.87976 28.063C6.84277 27.8472 6.25476 26.508 5.71277 25.2722C5.31778 24.3702 4.94574 23.5233 4.44174 23.2081C3.57773 22.399 2.71378 22.5638 1.90677 22.7178L1.90475 22.7181C1.59476 22.7772 1.29276 22.8347 1.00275 22.8347C-0.492249 22.8347 -2.28625 22.4612 -3.18326 19.847C-5.39426 14.0718 -8.07925 14.712 -11.0092 15.4111C-12.4372 15.7516 -13.9232 16.1061 -15.4422 15.7391C-16.2402 18.7273 -17.5052 20.2277 -18.8073 21.7711L-18.8082 21.7728C-19.9473 23.122 -21.1133 24.5044 -22.0202 26.9427C-23.0663 26.1958 -23.9632 25.4489 -24.7112 24.702C-26.2062 25.0754 -26.9532 26.9427 -27.7012 29.1834C-30.2422 26.5692 -34.4282 23.2081 -36.9702 21.7143C-37.5342 21.3739 -38.0663 21.0271 -38.5723 20.6971C-41.9512 18.493 -44.1842 17.0365 -47.4352 23.2081C-49.8272 27.6896 -52.6672 29.1834 -55.5082 29.5569C-59.8432 29.9303 -63.8792 32.1711 -67.9162 34.7853C-70.1512 36.3081 -72.3862 35.5886 -74.6682 34.854C-75.7442 34.5077 -76.8313 34.158 -77.9323 34.0383C-78.4653 33.9225 -78.9982 33.7708 -79.5302 33.6193L-79.5392 33.6169C-82.4323 32.7925 -85.2752 31.9822 -87.7992 37.026C-89.0112 36.3274 -89.2932 34.1768 -89.5872 31.9324L-89.5882 31.9244C-89.7662 30.5717 -89.9482 29.1856 -90.3412 28.063C-91.5372 26.5692 -93.1812 24.702 -94.8262 22.8347C-97.8242 24.7071 -100.746 23.1309 -103.7 21.5367L-103.711 21.5307C-104.878 20.9012 -106.05 20.2695 -107.234 19.847C-108.403 21.5731 -109.648 22.8744 -110.888 24.1704C-113.136 26.5195 -115.367 28.8514 -117.101 33.6649C-118.507 34.1917 -119.913 34.6361 -121.304 35.0754L-121.314 35.0786C-122.877 35.5725 -124.42 36.0603 -125.921 36.6525C-127.267 37.3994 -128.613 37.3994 -129.958 36.2791C-131.303 35.1587 -132.798 34.7853 -133.845 37.026C-136.685 42.6278 -139.526 41.5075 -142.665 38.1463C-142.788 37.9924 -142.938 37.9019 -143.112 37.7964L-143.114 37.7949C-143.362 37.6448 -143.661 37.4635 -144.011 37.026C-146.552 39.2667 -149.243 38.8933 -151.336 32.918C-153.408 34.268 -154.991 32.0936 -156.642 29.8248L-156.644 29.8219C-157.732 28.3258 -158.85 26.7892 -160.157 26.1958C-162.082 29.1813 -164.303 28.9256 -166.543 28.6676C-169.347 28.3447 -172.182 28.0182 -174.509 34.0383C-176.452 32.5445 -178.396 32.5445 -180.19 34.4118C-180.908 33.4455 -181.616 32.3133 -182.319 31.1898L-182.321 31.1869C-185.42 26.2325 -188.411 21.4489 -191.701 31.7976C-192.821 32.6714 -193.613 31.0918 -194.368 29.5846C-195.227 27.871 -196.04 26.251 -197.233 28.4365C-198.843 22.605 -201.189 22.9452 -203.48 23.2771C-205.443 23.5617 -207.364 23.8402 -208.744 20.2205C-209.502 20.5649 -210.006 21.4651 -210.535 22.4086C-211.152 23.5112 -211.802 24.6729 -212.93 25.0754C-213.711 24.7311 -214.563 23.8579 -215.454 22.9433C-217.464 20.8818 -219.679 18.6102 -221.75 21.7143C-223.245 23.5816 -224.89 23.5816 -226.534 22.4612C-228.029 21.3408 -230.625 21.3408 -232.12 21.7143C-233.011 23.3827 -233.901 24.844 -234.853 26.4066C-235.18 26.9422 -235.514 27.4913 -235.858 28.063C-240.044 26.5692 -243.931 28.81 -247.668 33.2914C-247.817 33.2914 -247.967 33.6649 -247.967 33.6649C-251.899 33.6649 -255.832 32.3059 -259.718 30.9627L-259.719 30.9624C-261.595 30.3142 -263.46 29.6697 -265.309 29.1834C-265.715 28.8935 -266.076 28.5792 -266.419 28.2813C-266.958 27.8116 -267.451 27.3826 -268 27.1542L-268 0.947266H1732V27.1541C1731.33 26.7318 1730.72 26.0927 1730.14 25.4848L1730.1 25.4381C1728.82 24.0803 1727.71 22.9089 1726.48 24.702C1725.1 26.5167 1724.04 26.9205 1722.97 27.3274C1721.84 27.7579 1720.7 28.192 1719.17 30.3038C1714.55 21.7143 1709.77 19.4736 1705 20.9674C1703.96 21.3408 1702.91 22.8347 1702.17 25.0754C1701.33 27.5589 1700.41 26.9152 1699.45 26.2438C1698.54 25.6028 1697.59 24.9368 1696.65 26.9427H1693.51C1692.75 27.904 1692.21 27.3806 1691.68 26.8502L1691.67 26.8439C1691.17 26.3462 1690.66 25.8475 1689.93 26.5692C1688.46 27.8017 1686.93 27.7914 1685.42 27.7811C1684.18 27.7727 1682.94 27.7643 1681.73 28.4365C1680.15 28.8906 1678.64 30.0812 1677.1 31.2867L1677.05 31.3242C1674.81 33.0805 1672.56 34.8528 1670.09 34.4118C1667.86 34.1783 1665.74 33.215 1663.62 32.2519L1663.59 32.2405C1662.34 31.6669 1661.08 31.0944 1659.8 30.6773L1659.74 30.6641C1657.97 30.2956 1656.35 29.9578 1654.73 32.1711C1653.24 34.7853 1651.3 35.1587 1649.66 33.6649C1647.27 31.0507 1645.18 31.4242 1643.39 36.6525H1642.8C1639.95 35.4157 1637.63 31.6189 1635.55 28.2294L1635.53 28.1886L1635.52 28.1773C1635.1 27.4912 1634.69 26.8225 1634.29 26.1958C1632.5 26.4751 1631.72 29.0553 1631 31.431V31.4463L1630.97 31.5362C1630.74 32.2984 1630.52 33.0357 1630.26 33.6649C1629.73 34.0048 1629.21 34.3641 1628.69 34.7234L1628.64 34.7542L1628.63 34.76C1624.55 37.5467 1620.53 40.2993 1616.84 34.0383C1615.19 34.0383 1614.35 36.0592 1613.73 37.5738L1613.7 37.6474C1613.49 38.1612 1613.3 38.6105 1613.11 38.8932C1610.42 41.1332 1608.16 39.8278 1606.05 38.6144L1606.04 38.61C1603.93 37.3979 1601.99 36.2822 1599.98 38.8932C1599.57 37.5861 1599.15 36.096 1598.68 34.4228V34.4117C1598.48 33.6981 1598.27 32.9512 1598.04 32.1711C1596.28 33.4108 1594.61 32.3829 1593.01 31.3974C1591.24 30.3047 1589.55 29.2643 1587.9 31.4242C1587.09 31.0168 1586.54 29.9431 1585.99 28.8693C1585.54 27.9742 1585.08 27.0785 1584.47 26.5692C1582.23 27.3161 1579.84 26.9427 1577.76 22.4612C1576.56 23.5816 1575.37 24.702 1574.33 25.8223C1572.95 25.5576 1571.65 24.3539 1570.38 23.1769L1570.37 23.1718C1568.06 21.0303 1565.84 18.9808 1563.44 22.8347C1559.92 19.8976 1556.51 20.5142 1553.11 21.1289C1550.89 21.5303 1548.67 21.931 1546.43 21.3408C1546.26 21.2934 1546.09 21.2428 1545.92 21.1913L1545.67 21.1174C1543.22 20.3761 1540.74 19.6256 1539.12 24.702C1537.37 25.1204 1535.94 23.5459 1534.55 22.0147L1534.53 21.9954C1533.45 20.8004 1532.39 19.6369 1531.21 19.4736C1530.47 19.4736 1529.91 20.3842 1529.34 21.3256L1529.33 21.3396C1528.86 22.099 1528.39 22.8756 1527.78 23.2081C1525.93 22.9401 1524.08 22.3088 1522.26 21.6873C1516.48 19.711 1510.99 17.8349 1506.45 28.063C1505.42 27.8472 1504.83 26.508 1504.29 25.2722C1503.9 24.3702 1503.53 23.5233 1503.02 23.2081C1502.16 22.4001 1501.3 22.5633 1500.49 22.7172L1500.48 22.7188C1500.18 22.7777 1499.88 22.8347 1499.59 22.8347C1498.1 22.8347 1496.31 22.4612 1495.41 19.847C1493.21 14.0726 1490.53 14.7119 1487.6 15.4108C1486.18 15.7513 1484.7 16.1061 1483.18 15.7391C1482.39 18.7172 1481.13 20.2176 1479.83 21.7554L1479.82 21.7728L1479.78 21.815C1478.67 23.151 1477.51 24.5298 1476.62 26.9427C1475.57 26.1958 1474.68 25.4489 1473.93 24.702C1472.44 25.0754 1471.7 26.9427 1470.95 29.1834C1468.41 26.5692 1464.24 23.2081 1461.7 21.7143C1461.21 21.4181 1460.75 21.117 1460.3 20.8264L1460.1 20.6971C1456.73 18.493 1454.5 17.0365 1451.26 23.2081C1448.87 27.6896 1446.04 29.1834 1443.2 29.5569C1438.88 29.9303 1434.85 32.1711 1430.82 34.7853C1428.59 36.3074 1426.36 35.5892 1424.08 34.855C1423.01 34.5087 1421.93 34.158 1420.83 34.0383C1420.33 33.9311 1419.84 33.7929 1419.35 33.6528L1419.22 33.6169C1416.34 32.7925 1413.5 31.9822 1410.98 37.026C1409.77 36.3274 1409.49 34.1769 1409.2 31.9324L1409.19 31.8563C1409.01 30.5254 1408.83 29.1668 1408.45 28.063C1407.25 26.5708 1405.62 24.7058 1403.98 22.8404L1403.97 22.8347C1400.98 24.7071 1398.06 23.1305 1395.12 21.5364L1395.08 21.513C1393.92 20.8894 1392.77 20.2656 1391.59 19.847C1390.42 21.5731 1389.18 22.8744 1387.94 24.1703C1385.7 26.5195 1383.48 28.8513 1381.74 33.6649C1380.34 34.1918 1378.94 34.636 1377.55 35.0754C1375.99 35.5703 1374.45 36.059 1372.94 36.6525C1371.6 37.3994 1370.26 37.3994 1368.92 36.2791C1367.57 35.1587 1366.08 34.7853 1365.04 37.026C1362.2 42.6278 1359.37 41.5075 1356.24 38.1463C1356.11 37.9975 1355.97 37.9079 1355.81 37.8068L1355.79 37.7949C1355.54 37.6448 1355.24 37.4635 1354.89 37.026C1352.36 39.2667 1349.67 38.8933 1347.58 32.918C1345.52 34.2674 1343.94 32.0954 1342.29 29.8276V29.8219L1342.26 29.7748C1341.18 28.2936 1340.08 26.783 1338.78 26.1958C1336.86 29.1803 1334.65 28.9258 1332.41 28.6678C1329.61 28.3449 1326.78 28.0182 1324.46 34.0383C1322.52 32.5445 1320.58 32.5445 1318.79 34.4118C1318.08 33.4446 1317.37 32.3113 1316.67 31.1869C1313.58 26.2325 1310.59 21.4489 1307.31 31.7976C1306.19 32.6714 1305.4 31.0918 1304.65 29.5846V29.5779C1303.79 27.8667 1302.98 26.2537 1301.79 28.4365C1300.18 22.605 1297.84 22.9452 1295.56 23.2771C1293.6 23.5617 1291.68 23.8402 1290.3 20.2205C1289.55 20.5649 1289.04 21.4652 1288.52 22.4086L1288.51 22.4202C1287.9 23.5194 1287.25 24.6743 1286.13 25.0754C1285.35 24.7311 1284.5 23.8576 1283.61 22.9428L1283.6 22.9377C1281.6 20.8775 1279.39 18.6128 1277.32 21.7143C1275.83 23.5816 1274.19 23.5816 1272.55 22.4612C1271.06 21.3408 1269.57 21.3408 1268.08 21.7143C1267.19 23.3755 1266.31 24.8331 1265.36 26.3881L1265.35 26.4066L1265.33 26.4306L1265.16 26.7043C1264.9 27.1455 1264.62 27.5962 1264.35 28.063C1260.17 26.5692 1256.29 28.81 1252.56 33.2914C1252.41 33.2914 1252.26 33.6649 1252.26 33.6649C1248.35 33.6649 1244.43 32.3099 1240.56 30.9687L1240.54 30.9628C1238.67 30.3144 1236.81 29.6697 1234.96 29.1834C1234.42 28.7943 1234.01 28.2597 1233.59 27.7075L1233.51 27.6093C1233.28 27.3083 1233.04 27.0043 1232.78 26.7178C1232.32 26.3341 1231.88 25.8764 1231.47 25.4381C1230.18 24.0819 1229.07 22.9106 1227.84 24.702C1226.46 26.5167 1225.4 26.9205 1224.33 27.3274L1224.32 27.3308C1223.19 27.7602 1222.05 28.1975 1220.52 30.3038C1215.88 21.7143 1211.1 19.4736 1206.31 20.9674C1205.27 21.3408 1204.22 22.8347 1203.47 25.0754C1202.63 27.5588 1201.71 26.9153 1200.75 26.2438C1199.84 25.6028 1198.89 24.9368 1197.94 26.9427H1194.8C1194.03 27.9024 1193.5 27.3823 1192.96 26.8529L1192.95 26.8439C1192.45 26.3462 1191.94 25.8475 1191.21 26.5692C1189.73 27.8017 1188.21 27.7914 1186.69 27.7811C1185.44 27.7727 1184.2 27.7643 1182.99 28.4365C1181.4 28.8946 1179.86 30.102 1178.31 31.3182L1178.3 31.3243C1176.06 33.0806 1173.81 34.8528 1171.33 34.4118C1169.08 34.1774 1166.94 33.2074 1164.82 32.2405C1163.56 31.6669 1162.3 31.0944 1161.02 30.6773L1160.95 30.664C1159.18 30.2955 1157.56 29.9578 1155.93 32.1711C1154.44 34.7853 1152.49 35.1587 1150.85 33.6649C1148.46 31.0507 1146.36 31.4242 1144.57 36.6525H1143.97C1141.11 35.4109 1138.77 31.5889 1136.69 28.1893C1136.27 27.499 1135.86 26.8261 1135.45 26.1958C1133.66 26.4758 1132.87 29.0648 1132.15 31.4449L1132.12 31.5353C1131.89 32.2978 1131.67 33.0355 1131.41 33.6649C1130.89 34.0048 1130.36 34.3641 1129.84 34.7234L1129.79 34.7542L1129.78 34.7599C1125.69 37.5467 1121.66 40.2993 1117.96 34.0383C1116.31 34.0383 1115.47 36.0592 1114.85 37.5737L1114.84 37.5859L1114.76 37.7841C1114.56 38.2405 1114.4 38.6358 1114.22 38.8932C1111.53 41.133 1109.26 39.8281 1107.14 38.6148L1107.13 38.61C1105.03 37.3975 1103.08 36.2813 1101.07 38.8932C1100.65 37.5834 1100.23 36.0899 1099.76 34.4126C1099.56 33.6987 1099.35 32.9515 1099.12 32.1711C1097.35 33.4108 1095.68 32.3829 1094.08 31.3974L1094.07 31.3941C1092.3 30.3027 1090.61 29.2664 1088.96 31.4242C1088.14 31.0168 1087.59 29.9431 1087.04 28.8692C1086.59 27.9742 1086.13 27.0785 1085.52 26.5692C1083.28 27.3161 1080.88 26.9427 1078.79 22.4612L1078.56 22.6733C1077.45 23.723 1076.33 24.7727 1075.35 25.8223C1073.97 25.5575 1072.67 24.3541 1071.4 23.1769C1069.08 21.0336 1066.85 18.9777 1064.44 22.8347C1060.91 19.8976 1057.49 20.5142 1054.09 21.1289L1054.08 21.1302C1051.86 21.5312 1049.64 21.9303 1047.4 21.3408C1047.14 21.2708 1046.89 21.1942 1046.64 21.1174C1044.18 20.3765 1041.7 19.6284 1040.07 24.702C1038.31 25.1204 1036.88 23.5459 1035.49 22.0146C1034.4 20.8129 1033.33 19.6378 1032.15 19.4736C1031.4 19.4736 1030.84 20.382 1030.26 21.3222L1030.25 21.3392C1029.78 22.0987 1029.31 22.8756 1028.71 23.2081C1026.85 22.9401 1025 22.3088 1023.18 21.6873C1017.38 19.7114 1011.88 17.8367 1007.33 28.063C1006.31 27.8507 1005.73 26.5521 1005.19 25.3336L1005.16 25.2721C1004.77 24.3702 1004.4 23.5233 1003.89 23.2081C1003.03 22.4001 1002.17 22.5633 1001.36 22.7172C1001.05 22.7764 1000.74 22.8347 1000.45 22.8347C998.96 22.8347 997.17 22.4612 996.27 19.847C994.06 14.0718 991.37 14.712 988.44 15.4111L988.43 15.4138C987 15.7536 985.53 16.1051 984.01 15.7391C983.21 18.7284 981.95 20.2289 980.64 21.7728C979.5 23.122 978.34 24.5044 977.43 26.9427C976.38 26.1958 975.49 25.4489 974.74 24.702C973.25 25.0754 972.5 26.9427 971.75 29.1834C969.21 26.5692 965.02 23.2081 962.48 21.7143C961.99 21.4181 961.53 21.117 961.08 20.8264L960.88 20.6971C957.5 18.494 955.27 17.0382 952.02 23.2081C949.62 27.6896 946.78 29.1834 943.94 29.5569C939.61 29.9303 935.57 32.1711 931.54 34.7853C929.3 36.3081 927.06 35.5886 924.78 34.854C923.71 34.5077 922.62 34.158 921.52 34.0383C921.02 33.9311 920.53 33.7931 920.04 33.653L919.91 33.6169C917.02 32.7925 914.18 31.9822 911.65 37.026C910.45 36.332 910.16 34.2052 909.87 31.9768L909.86 31.9324C909.69 30.5772 909.5 29.1878 909.11 28.063C907.91 26.5695 906.27 24.7027 904.63 22.8358C901.63 24.7063 898.72 23.1341 895.76 21.5416L895.75 21.5367C894.58 20.9052 893.4 20.2709 892.22 19.847C891.06 21.5561 889.82 22.8486 888.6 24.1319L888.56 24.1704L888.52 24.2109C886.29 26.5464 884.07 28.879 882.35 33.6649C880.94 34.1917 879.54 34.636 878.15 35.0754C876.58 35.5703 875.03 36.059 873.53 36.6525C872.18 37.3994 870.84 37.3994 869.49 36.2791C868.15 35.1587 866.65 34.7853 865.61 37.026C862.77 42.6278 859.93 41.5075 856.79 38.1463C856.67 37.9976 856.52 37.9081 856.36 37.807L856.34 37.7949C856.09 37.6447 855.79 37.4635 855.44 37.026C852.9 39.2667 850.21 38.8933 848.11 32.918C846.04 34.2674 844.46 32.0952 842.81 29.8274V29.8219C841.72 28.3258 840.6 26.7892 839.29 26.1958C837.37 29.1813 835.15 28.9256 832.91 28.6676C830.1 28.3447 827.27 28.0194 824.94 34.0383C823 32.5445 821.06 32.5445 819.26 34.4118C818.54 33.4447 817.83 32.3114 817.13 31.187C814.03 26.2343 811.04 21.4522 807.75 31.7976C806.63 32.6678 805.85 31.1047 805.09 29.6032L805.08 29.5845V29.5779C804.22 27.8667 803.41 26.2537 802.22 28.4365C800.61 22.605 798.26 22.9452 795.97 23.2771C794.01 23.5617 792.09 23.8402 790.71 20.2205C789.95 20.5649 789.44 21.4652 788.92 22.4086L788.91 22.4201C788.3 23.5193 787.65 24.6743 786.52 25.0754C785.74 24.7311 784.89 23.8576 784 22.9428C781.99 20.8813 779.77 18.6102 777.7 21.7143C776.21 23.5816 774.56 23.5816 772.92 22.4612C771.42 21.3408 768.83 21.3408 767.33 21.7143C766.45 23.3607 765.57 24.8054 764.64 26.3449L764.6 26.4083C764.41 26.72 764.22 27.0356 764.02 27.3578C763.88 27.5892 763.74 27.824 763.59 28.063C759.41 26.5692 755.52 28.81 751.78 33.2914C751.63 33.2914 751.48 33.6649 751.48 33.6649C747.56 33.6649 743.63 32.31 739.75 30.9688L739.73 30.9627C737.86 30.3144 735.99 29.6697 734.14 29.1834C733.57 28.7791 733.16 28.2177 732.72 27.622L732.69 27.5871L732.63 27.5003C732.28 27.033 731.914 26.5498 731.451 26.1089C731.198 25.8707 730.953 25.6175 730.714 25.3739L730.695 25.3551C729.392 24.0268 728.273 22.8865 727.03 24.702C725.652 26.5167 724.592 26.9205 723.524 27.3274C722.393 27.7579 721.254 28.192 719.72 30.3038C715.096 21.7143 710.322 19.4736 705.549 20.9674C704.505 21.3408 703.46 22.8347 702.715 25.0754C701.875 27.5597 700.957 26.9148 700.001 26.2431C699.089 25.6021 698.142 24.9368 697.195 26.9427H694.063C693.295 27.904 692.764 27.3806 692.226 26.8502C691.719 26.3504 691.206 25.8445 690.482 26.5692C689.006 27.8017 687.484 27.7914 685.966 27.7811C684.725 27.7727 683.486 27.7643 682.278 28.4365C680.692 28.8946 679.156 30.102 677.609 31.3182L677.608 31.3193C675.371 33.0772 673.111 34.8532 670.643 34.4118C668.396 34.1774 666.266 33.2074 664.143 32.2405C662.884 31.6669 661.627 31.0944 660.35 30.6773L660.287 30.6641C658.521 30.2953 656.9 29.9567 655.278 32.1711C653.786 34.7853 651.847 35.1587 650.206 33.6649C647.819 31.0507 645.731 31.4242 643.941 36.6525H643.344C640.494 35.4116 638.159 31.5936 636.081 28.1957L636.077 28.1889L636.075 28.1848C635.654 27.4961 635.243 26.8247 634.841 26.1958C633.052 26.4757 632.269 29.0643 631.549 31.4441L631.548 31.4472C631.308 32.2409 631.075 33.0113 630.814 33.6649C630.273 34.014 629.733 34.3835 629.194 34.7525L629.191 34.7542C625.113 37.5429 621.076 40.3036 617.388 34.0383C615.738 34.0383 614.899 36.07 614.273 37.5858L614.264 37.6076C614.045 38.1379 613.852 38.6032 613.659 38.8932C610.972 41.1359 608.695 39.8246 606.586 38.61C604.482 37.3975 602.544 36.2813 600.532 38.8932C600.114 37.5845 599.695 36.0924 599.226 34.4168L599.225 34.4135C599.025 33.6994 598.815 32.9519 598.593 32.1711C596.824 33.4108 595.156 32.3829 593.557 31.3974C591.784 30.3049 590.096 29.2644 588.449 31.4242C587.635 31.0168 587.088 29.9429 586.541 28.8689L586.537 28.8615C586.082 27.9688 585.626 27.0771 585.018 26.5692C582.78 27.3161 580.394 26.9427 578.305 22.4612C577.112 23.5816 575.919 24.702 574.874 25.8223C573.499 25.5575 572.199 24.3541 570.928 23.1769C568.613 21.0336 566.392 18.9777 563.985 22.8347C560.465 19.8976 557.055 20.5142 553.655 21.1289C551.434 21.5303 549.218 21.9309 546.979 21.3408C546.729 21.271 546.475 21.1943 546.222 21.1179C543.773 20.3766 541.292 19.6256 539.67 24.702C537.915 25.1204 536.487 23.5459 535.099 22.0147C534.01 20.8129 532.944 19.6378 531.764 19.4736C531.023 19.4736 530.463 20.3841 529.885 21.3256C529.416 22.0894 528.934 22.8736 528.333 23.2081C526.477 22.9401 524.63 22.3088 522.812 21.6873C517.03 19.711 511.541 17.8348 507.001 28.063C505.967 27.8472 505.38 26.508 504.839 25.2722C504.445 24.3702 504.074 23.5233 503.57 23.2081C502.709 22.399 501.847 22.5638 501.041 22.7178L501.039 22.7181C500.73 22.7772 500.429 22.8347 500.14 22.8347C498.648 22.8347 496.858 22.4612 495.963 19.847C493.756 14.0718 491.078 14.712 488.154 15.4111C486.729 15.7516 485.246 16.1061 483.731 15.7391C482.935 18.7273 481.672 20.2278 480.372 21.7711L480.371 21.7728C479.235 23.122 478.071 24.5044 477.167 26.9427C476.123 26.1958 475.228 25.4489 474.482 24.702C472.99 25.0754 472.244 26.9427 471.499 29.1834C468.963 26.5692 464.786 23.2081 462.25 21.7143C461.687 21.3739 461.156 21.0271 460.651 20.6971C457.28 18.4933 455.052 17.0371 451.808 23.2081C449.421 27.6896 446.587 29.1834 443.753 29.5569C439.427 29.9303 435.399 32.1711 431.371 34.7853C429.141 36.3081 426.911 35.5886 424.634 34.854C423.56 34.5078 422.475 34.1579 421.377 34.0383C420.842 33.9219 420.307 33.7692 419.774 33.6169C416.887 32.7925 414.05 31.9822 411.531 37.026C410.322 36.3274 410.041 34.1767 409.748 31.9323L409.745 31.9087C409.568 30.561 409.387 29.1813 408.996 28.063C407.804 26.5714 406.166 24.7074 404.528 22.8429L404.523 22.8375L404.52 22.8347C401.529 24.7069 398.615 23.1312 395.666 21.5373L395.665 21.5367L395.663 21.5355C394.495 20.9044 393.323 20.2706 392.139 19.847C390.974 21.5708 389.733 22.8712 388.498 24.1655L388.493 24.1704C386.25 26.5195 384.024 28.8514 382.294 33.6649C380.893 34.191 379.491 34.6348 378.106 35.0736L378.101 35.0751L378.1 35.0754C376.537 35.5703 374.994 36.059 373.493 36.6525C372.15 37.3994 370.808 37.3994 369.465 36.2791C368.122 35.1587 366.631 34.7853 365.587 37.026C362.752 42.6278 359.918 41.5075 356.785 38.1463C356.662 37.9917 356.513 37.901 356.338 37.7949L356.336 37.7939C356.09 37.644 355.791 37.4626 355.443 37.026C352.907 39.2667 350.222 38.8933 348.133 32.918C346.066 34.2685 344.485 32.0917 342.838 29.8219C341.752 28.3258 340.636 26.7892 339.332 26.1958C337.411 29.1813 335.195 28.9256 332.96 28.6676C330.162 28.3447 327.334 28.0182 325.012 34.0383C323.073 32.5445 321.133 32.5445 319.343 34.4118C318.629 33.4486 317.925 32.3207 317.226 31.2008L317.217 31.1869C314.125 26.2327 311.14 21.4493 307.857 31.7976C306.74 32.6713 305.95 31.0924 305.196 29.5854C304.339 27.8717 303.528 26.2509 302.338 28.4365C300.731 22.605 298.39 22.9452 296.105 23.2771C294.146 23.5617 292.229 23.8402 290.852 20.2205C290.095 20.5649 289.592 21.4652 289.065 22.4086C288.449 23.5113 287.8 24.6729 286.675 25.0754C285.897 24.7318 285.05 23.8612 284.161 22.9485L284.156 22.9428C282.15 20.8813 279.94 18.6102 277.874 21.7143C276.382 23.5816 274.741 23.5816 273.1 22.4612C271.608 21.3408 270.117 21.3408 268.625 21.7143C267.74 23.3777 266.853 24.8354 265.906 26.3927L265.901 26.4008L265.899 26.4049L265.898 26.4066L265.895 26.4121C265.57 26.9464 265.238 27.4926 264.896 28.063C260.719 26.5692 256.84 28.81 253.111 33.2914C252.962 33.2914 252.813 33.6649 252.813 33.6649C248.889 33.6649 244.965 32.3059 241.088 30.9628C239.216 30.3144 237.354 29.6697 235.509 29.1834C234.965 28.7942 234.556 28.2593 234.135 27.7071L234.124 27.6925C233.873 27.3645 233.619 27.0307 233.326 26.7179C232.865 26.3341 232.431 25.8764 232.016 25.4381C230.73 24.0805 229.621 22.9091 228.391 24.702Z" fill="#CFFDE1"/>
</g>
<defs>
<clipPath id="clip0_101_3363">
<rect width="2000" height="40" fill="white" transform="matrix(1 0 0 -1 -268 40.9473)"/>
</clipPath>
</defs>
</svg>
