<svg width="1440" height="41" viewBox="0 0 1440 41" fill="none" xmlns="http://www.w3.org/2000/svg">
<g clip-path="url(#clip0_101_3365)">
<path d="M15.3907 24.702C14.0097 26.5167 12.9478 26.9205 11.8768 27.3274C10.7438 27.7579 9.60175 28.192 8.06476 30.3038C3.43076 21.7143 -1.35324 19.4736 -6.13724 20.9674C-7.18423 21.3408 -8.23026 22.8347 -8.97824 25.0754C-9.81924 27.5597 -10.7392 26.9148 -11.6972 26.2431C-12.6112 25.6021 -13.5602 24.9368 -14.5092 26.9427H-17.6492C-18.4182 27.904 -18.9503 27.3806 -19.4893 26.8502C-19.9973 26.3505 -20.5112 25.8446 -21.2372 26.5692C-22.7173 27.8017 -24.2422 27.7914 -25.7632 27.7811C-27.0072 27.7727 -28.2483 27.7643 -29.4593 28.4365C-31.0482 28.8946 -32.5883 30.1019 -34.1382 31.3182C-36.3802 33.0765 -38.6462 34.8533 -41.1202 34.4118C-43.3712 34.1775 -45.5042 33.2083 -47.6313 32.2419L-47.6342 32.2405C-48.8952 31.6669 -50.1552 31.0944 -51.4352 30.6773L-51.4992 30.664C-53.2682 30.2953 -54.8932 29.9567 -56.5182 32.1711C-58.0132 34.7853 -59.9572 35.1587 -61.6013 33.6649C-63.9933 31.0507 -66.0862 31.4242 -67.8802 36.6525H-68.4782C-71.3362 35.4108 -73.6782 31.5884 -75.7612 28.1887L-75.7832 28.1529C-76.1982 27.4753 -76.6032 26.815 -77.0002 26.1958C-78.7932 26.4757 -79.5782 29.0637 -80.3002 31.4433C-80.5402 32.2378 -80.7743 33.0106 -81.0363 33.6649C-81.5663 34.0064 -82.0963 34.3675 -82.6252 34.7285L-82.6632 34.7542C-86.7492 37.5429 -90.7952 40.3036 -94.4912 34.0383C-96.1452 34.0383 -96.9862 36.07 -97.6133 37.5858C-97.8362 38.1252 -98.0323 38.5992 -98.2292 38.8932C-100.921 41.1355 -103.202 39.8251 -105.316 38.6107C-107.425 37.3982 -109.368 36.2813 -111.384 38.8932C-111.804 37.5829 -112.224 36.0885 -112.695 34.4103C-112.895 33.6971 -113.105 32.9507 -113.328 32.1711C-115.1 33.4108 -116.772 32.3829 -118.374 31.3974C-120.151 30.3047 -121.843 29.2643 -123.494 31.4242C-124.309 31.0167 -124.858 29.9427 -125.406 28.8686L-125.41 28.8608C-125.867 27.9684 -126.323 27.077 -126.932 26.5692C-129.175 27.3161 -131.567 26.9433 -133.66 22.4619C-134.856 23.582 -136.052 24.7022 -137.098 25.8223C-138.476 25.5575 -139.779 24.3541 -141.053 23.1769L-141.054 23.1756C-143.375 21.0327 -145.6 18.9785 -148.012 22.8347C-151.539 19.8976 -154.957 20.5142 -158.364 21.1289L-158.366 21.1293C-160.591 21.5306 -162.811 21.9308 -165.055 21.3408C-165.299 21.273 -165.544 21.1991 -165.79 21.1248L-165.814 21.1175L-165.815 21.1174C-168.269 20.3761 -170.754 19.6256 -172.38 24.702C-174.138 25.1202 -175.567 23.5478 -176.958 22.0174L-176.961 22.0147L-176.964 22.0118C-178.055 20.8111 -179.121 19.6377 -180.303 19.4736C-181.046 19.4736 -181.607 20.3842 -182.186 21.3256L-182.191 21.3345C-182.661 22.0955 -183.141 22.8749 -183.742 23.2081C-185.602 22.9401 -187.453 22.3088 -189.275 21.6874C-195.069 19.7111 -200.571 17.8348 -205.12 28.063C-206.157 27.8472 -206.745 26.508 -207.287 25.2722C-207.682 24.3702 -208.054 23.5233 -208.558 23.2081C-209.422 22.399 -210.286 22.5638 -211.093 22.7178L-211.095 22.7181C-211.405 22.7772 -211.707 22.8347 -211.997 22.8347C-213.492 22.8347 -215.286 22.4612 -216.183 19.847C-218.394 14.0718 -221.079 14.712 -224.009 15.4111C-225.437 15.7516 -226.923 16.1061 -228.442 15.7391C-229.24 18.7273 -230.505 20.2277 -231.807 21.7711L-231.808 21.7728C-232.947 23.122 -234.113 24.5044 -235.02 26.9427C-236.066 26.1958 -236.963 25.4489 -237.711 24.702C-239.206 25.0754 -239.953 26.9427 -240.701 29.1834C-243.242 26.5692 -247.428 23.2081 -249.97 21.7143C-250.534 21.3739 -251.066 21.0271 -251.572 20.6971C-254.951 18.493 -257.184 17.0365 -260.435 23.2081C-262.827 27.6896 -265.667 29.1834 -268.508 29.5569C-272.843 29.9303 -276.879 32.1711 -280.916 34.7853C-283.151 36.3081 -285.386 35.5886 -287.668 34.854C-288.744 34.5077 -289.831 34.158 -290.932 34.0383C-291.465 33.9225 -291.998 33.7708 -292.53 33.6193L-292.539 33.6169C-295.432 32.7925 -298.275 31.9822 -300.799 37.026C-302.011 36.3274 -302.293 34.1768 -302.587 31.9324L-302.588 31.9244C-302.766 30.5717 -302.948 29.1856 -303.341 28.063C-304.537 26.5692 -306.181 24.702 -307.826 22.8347C-310.824 24.7071 -313.746 23.1309 -316.7 21.5367L-316.711 21.5307C-317.878 20.9012 -319.05 20.2695 -320.234 19.847C-321.403 21.5731 -322.648 22.8744 -323.888 24.1704C-326.136 26.5195 -328.367 28.8514 -330.101 33.6649C-331.507 34.1917 -332.913 34.6361 -334.304 35.0754L-334.314 35.0786C-335.877 35.5725 -337.42 36.0603 -338.921 36.6525C-340.267 37.3994 -341.613 37.3994 -342.958 36.2791C-344.303 35.1587 -345.798 34.7853 -346.845 37.026C-349.685 42.6278 -352.526 41.5075 -355.665 38.1463C-355.788 37.9924 -355.938 37.9019 -356.112 37.7964L-356.114 37.7949C-356.362 37.6448 -356.661 37.4635 -357.011 37.026C-359.552 39.2667 -362.243 38.8933 -364.336 32.918C-366.408 34.268 -367.991 32.0936 -369.642 29.8248L-369.644 29.8219C-370.732 28.3258 -371.85 26.7892 -373.157 26.1958C-375.082 29.1813 -377.303 28.9256 -379.543 28.6676C-382.347 28.3447 -385.182 28.0182 -387.509 34.0383C-389.452 32.5445 -391.396 32.5445 -393.19 34.4118C-393.908 33.4455 -394.616 32.3133 -395.319 31.1898L-395.321 31.1869C-398.42 26.2325 -401.411 21.4489 -404.701 31.7976C-405.821 32.6714 -406.613 31.0918 -407.368 29.5846C-408.227 27.871 -409.04 26.251 -410.233 28.4365C-411.843 22.605 -414.189 22.9452 -416.48 23.2771C-418.443 23.5617 -420.364 23.8402 -421.744 20.2205C-422.502 20.5649 -423.006 21.4651 -423.535 22.4086C-424.152 23.5112 -424.802 24.6729 -425.93 25.0754C-426.711 24.7311 -427.563 23.8579 -428.454 22.9433C-430.464 20.8818 -432.679 18.6102 -434.75 21.7143C-436.245 23.5816 -437.89 23.5816 -439.534 22.4612C-441.029 21.3408 -443.625 21.3408 -445.12 21.7143C-446.011 23.3827 -446.901 24.844 -447.853 26.4066C-448.18 26.9422 -448.514 27.4913 -448.858 28.063C-453.044 26.5692 -456.931 28.81 -460.668 33.2914C-460.817 33.2914 -460.967 33.6649 -460.967 33.6649C-464.899 33.6649 -468.832 32.3059 -472.718 30.9627L-472.719 30.9624C-474.595 30.3142 -476.46 29.6697 -478.309 29.1834C-478.715 28.8935 -479.076 28.5792 -479.419 28.2813C-479.958 27.8116 -480.451 27.3826 -481 27.1542L-481 0.947266H1519V27.1541C1518.33 26.7318 1517.72 26.0927 1517.14 25.4848L1517.1 25.4381C1515.82 24.0803 1514.71 22.9089 1513.48 24.702C1512.1 26.5167 1511.04 26.9205 1509.97 27.3274C1508.84 27.7579 1507.7 28.192 1506.17 30.3038C1501.55 21.7143 1496.77 19.4736 1492 20.9674C1490.96 21.3408 1489.91 22.8347 1489.17 25.0754C1488.33 27.5589 1487.41 26.9152 1486.45 26.2438C1485.54 25.6028 1484.59 24.9368 1483.65 26.9427H1480.51C1479.75 27.904 1479.21 27.3806 1478.68 26.8502L1478.67 26.8439C1478.17 26.3462 1477.66 25.8475 1476.93 26.5692C1475.46 27.8017 1473.93 27.7914 1472.42 27.7811C1471.18 27.7727 1469.94 27.7643 1468.73 28.4365C1467.15 28.8906 1465.64 30.0812 1464.1 31.2867L1464.05 31.3242C1461.81 33.0805 1459.56 34.8528 1457.09 34.4118C1454.86 34.1783 1452.74 33.215 1450.62 32.2519L1450.59 32.2405C1449.34 31.6669 1448.08 31.0944 1446.8 30.6773L1446.74 30.6641C1444.97 30.2956 1443.35 29.9578 1441.73 32.1711C1440.24 34.7853 1438.3 35.1587 1436.66 33.6649C1434.27 31.0507 1432.18 31.4242 1430.39 36.6525H1429.8C1426.95 35.4157 1424.63 31.6189 1422.55 28.2294L1422.53 28.1886L1422.52 28.1773C1422.1 27.4912 1421.69 26.8225 1421.29 26.1958C1419.5 26.4751 1418.72 29.0553 1418 31.431V31.4463L1417.97 31.5362C1417.74 32.2984 1417.52 33.0357 1417.26 33.6649C1416.73 34.0048 1416.21 34.3641 1415.69 34.7234L1415.64 34.7542L1415.63 34.76C1411.55 37.5467 1407.53 40.2993 1403.84 34.0383C1402.19 34.0383 1401.35 36.0592 1400.73 37.5738L1400.7 37.6474C1400.49 38.1612 1400.3 38.6105 1400.11 38.8932C1397.42 41.1332 1395.16 39.8278 1393.05 38.6144L1393.04 38.61C1390.93 37.3979 1388.99 36.2822 1386.98 38.8932C1386.57 37.5861 1386.15 36.096 1385.68 34.4228V34.4117C1385.48 33.6981 1385.27 32.9512 1385.04 32.1711C1383.28 33.4108 1381.61 32.3829 1380.01 31.3974C1378.24 30.3047 1376.55 29.2643 1374.9 31.4242C1374.09 31.0168 1373.54 29.9431 1372.99 28.8693C1372.54 27.9742 1372.08 27.0785 1371.47 26.5692C1369.23 27.3161 1366.84 26.9427 1364.76 22.4612C1363.56 23.5816 1362.37 24.702 1361.33 25.8223C1359.95 25.5576 1358.65 24.3539 1357.38 23.1769L1357.37 23.1718C1355.06 21.0303 1352.84 18.9808 1350.44 22.8347C1346.92 19.8976 1343.51 20.5142 1340.11 21.1289C1337.89 21.5303 1335.67 21.931 1333.43 21.3408C1333.26 21.2934 1333.09 21.2428 1332.92 21.1913L1332.67 21.1174C1330.22 20.3761 1327.74 19.6256 1326.12 24.702C1324.37 25.1204 1322.94 23.5459 1321.55 22.0147L1321.53 21.9954C1320.45 20.8004 1319.39 19.6369 1318.21 19.4736C1317.47 19.4736 1316.91 20.3842 1316.34 21.3256L1316.33 21.3396C1315.86 22.099 1315.39 22.8756 1314.78 23.2081C1312.93 22.9401 1311.08 22.3088 1309.26 21.6873C1303.48 19.711 1297.99 17.8349 1293.45 28.063C1292.42 27.8472 1291.83 26.508 1291.29 25.2722C1290.9 24.3702 1290.53 23.5233 1290.02 23.2081C1289.16 22.4001 1288.3 22.5633 1287.49 22.7172L1287.48 22.7188C1287.18 22.7777 1286.88 22.8347 1286.59 22.8347C1285.1 22.8347 1283.31 22.4612 1282.41 19.847C1280.21 14.0726 1277.53 14.7119 1274.6 15.4108C1273.18 15.7513 1271.7 16.1061 1270.18 15.7391C1269.39 18.7172 1268.13 20.2176 1266.83 21.7554L1266.82 21.7728L1266.78 21.815C1265.67 23.151 1264.51 24.5298 1263.62 26.9427C1262.57 26.1958 1261.68 25.4489 1260.93 24.702C1259.44 25.0754 1258.7 26.9427 1257.95 29.1834C1255.41 26.5692 1251.24 23.2081 1248.7 21.7143C1248.21 21.4181 1247.75 21.117 1247.3 20.8264L1247.1 20.6971C1243.73 18.493 1241.5 17.0365 1238.26 23.2081C1235.87 27.6896 1233.04 29.1834 1230.2 29.5569C1225.88 29.9303 1221.85 32.1711 1217.82 34.7853C1215.59 36.3074 1213.36 35.5892 1211.08 34.855C1210.01 34.5087 1208.93 34.158 1207.83 34.0383C1207.33 33.9311 1206.84 33.7929 1206.35 33.6528L1206.22 33.6169C1203.34 32.7925 1200.5 31.9822 1197.98 37.026C1196.77 36.3274 1196.49 34.1769 1196.2 31.9324L1196.19 31.8563C1196.01 30.5254 1195.83 29.1668 1195.45 28.063C1194.25 26.5708 1192.62 24.7058 1190.98 22.8404L1190.97 22.8347C1187.98 24.7071 1185.06 23.1305 1182.12 21.5364L1182.08 21.513C1180.92 20.8894 1179.77 20.2656 1178.59 19.847C1177.42 21.5731 1176.18 22.8744 1174.94 24.1703C1172.7 26.5195 1170.48 28.8513 1168.74 33.6649C1167.34 34.1918 1165.94 34.636 1164.55 35.0754C1162.99 35.5703 1161.45 36.059 1159.94 36.6525C1158.6 37.3994 1157.26 37.3994 1155.92 36.2791C1154.57 35.1587 1153.08 34.7853 1152.04 37.026C1149.2 42.6278 1146.37 41.5075 1143.24 38.1463C1143.11 37.9975 1142.97 37.9079 1142.81 37.8068L1142.79 37.7949C1142.54 37.6448 1142.24 37.4635 1141.89 37.026C1139.36 39.2667 1136.67 38.8933 1134.58 32.918C1132.52 34.2674 1130.94 32.0954 1129.29 29.8276V29.8219L1129.26 29.7748C1128.18 28.2936 1127.08 26.783 1125.78 26.1958C1123.86 29.1803 1121.65 28.9258 1119.41 28.6678C1116.61 28.3449 1113.78 28.0182 1111.46 34.0383C1109.52 32.5445 1107.58 32.5445 1105.79 34.4118C1105.08 33.4446 1104.37 32.3113 1103.67 31.1869C1100.58 26.2325 1097.59 21.4489 1094.31 31.7976C1093.19 32.6714 1092.4 31.0918 1091.65 29.5846V29.5779C1090.79 27.8667 1089.98 26.2537 1088.79 28.4365C1087.18 22.605 1084.84 22.9452 1082.56 23.2771C1080.6 23.5617 1078.68 23.8402 1077.3 20.2205C1076.55 20.5649 1076.04 21.4652 1075.52 22.4086L1075.51 22.4202C1074.9 23.5194 1074.25 24.6743 1073.13 25.0754C1072.35 24.7311 1071.5 23.8576 1070.61 22.9428L1070.6 22.9377C1068.6 20.8775 1066.39 18.6128 1064.32 21.7143C1062.83 23.5816 1061.19 23.5816 1059.55 22.4612C1058.06 21.3408 1056.57 21.3408 1055.08 21.7143C1054.19 23.3755 1053.31 24.8331 1052.36 26.3881L1052.35 26.4066L1052.33 26.4306L1052.16 26.7043C1051.9 27.1455 1051.62 27.5962 1051.35 28.063C1047.17 26.5692 1043.29 28.81 1039.56 33.2914C1039.41 33.2914 1039.26 33.6649 1039.26 33.6649C1035.35 33.6649 1031.43 32.3099 1027.56 30.9687L1027.54 30.9628C1025.67 30.3144 1023.81 29.6697 1021.96 29.1834C1021.42 28.7943 1021.01 28.2597 1020.59 27.7075L1020.51 27.6093C1020.28 27.3083 1020.04 27.0043 1019.78 26.7178C1019.32 26.3341 1018.88 25.8764 1018.47 25.4381C1017.18 24.0819 1016.07 22.9106 1014.84 24.702C1013.46 26.5167 1012.4 26.9205 1011.33 27.3274L1011.32 27.3308C1010.19 27.7602 1009.05 28.1975 1007.52 30.3038C1002.88 21.7143 998.1 19.4736 993.31 20.9674C992.27 21.3408 991.22 22.8347 990.47 25.0754C989.63 27.5588 988.71 26.9153 987.75 26.2438C986.84 25.6028 985.89 24.9368 984.94 26.9427H981.8C981.03 27.9024 980.5 27.3823 979.96 26.8529L979.95 26.8439C979.45 26.3462 978.94 25.8475 978.21 26.5692C976.73 27.8017 975.21 27.7914 973.69 27.7811C972.44 27.7727 971.2 27.7643 969.99 28.4365C968.4 28.8946 966.86 30.102 965.31 31.3182L965.3 31.3243C963.06 33.0806 960.81 34.8528 958.33 34.4118C956.08 34.1774 953.94 33.2074 951.82 32.2405C950.56 31.6669 949.3 31.0944 948.02 30.6773L947.95 30.664C946.18 30.2955 944.56 29.9578 942.93 32.1711C941.44 34.7853 939.49 35.1587 937.85 33.6649C935.46 31.0507 933.36 31.4242 931.57 36.6525H930.97C928.11 35.4109 925.77 31.5889 923.69 28.1893C923.27 27.499 922.86 26.8261 922.45 26.1958C920.66 26.4758 919.87 29.0648 919.15 31.4449L919.12 31.5353C918.89 32.2978 918.67 33.0355 918.41 33.6649C917.89 34.0048 917.36 34.3641 916.84 34.7234L916.79 34.7542L916.78 34.7599C912.69 37.5467 908.66 40.2993 904.96 34.0383C903.31 34.0383 902.47 36.0592 901.85 37.5737L901.84 37.5859L901.76 37.7841C901.56 38.2405 901.4 38.6358 901.22 38.8932C898.53 41.133 896.26 39.8281 894.14 38.6148L894.13 38.61C892.03 37.3975 890.08 36.2813 888.07 38.8932C887.65 37.5834 887.23 36.0899 886.76 34.4126C886.56 33.6987 886.35 32.9515 886.12 32.1711C884.35 33.4108 882.68 32.3829 881.08 31.3974L881.07 31.3941C879.3 30.3027 877.61 29.2664 875.96 31.4242C875.14 31.0168 874.59 29.9431 874.04 28.8692C873.59 27.9742 873.13 27.0785 872.52 26.5692C870.28 27.3161 867.88 26.9427 865.79 22.4612L865.56 22.6733C864.45 23.723 863.33 24.7727 862.35 25.8223C860.97 25.5575 859.67 24.3541 858.4 23.1769C856.08 21.0336 853.85 18.9777 851.44 22.8347C847.91 19.8976 844.49 20.5142 841.09 21.1289L841.08 21.1302C838.86 21.5312 836.64 21.9303 834.4 21.3408C834.14 21.2708 833.89 21.1942 833.64 21.1174C831.18 20.3765 828.7 19.6284 827.07 24.702C825.31 25.1204 823.88 23.5459 822.49 22.0146C821.4 20.8129 820.33 19.6378 819.15 19.4736C818.4 19.4736 817.84 20.382 817.26 21.3222L817.25 21.3392C816.78 22.0987 816.31 22.8756 815.71 23.2081C813.85 22.9401 812 22.3088 810.18 21.6873C804.38 19.7114 798.88 17.8367 794.33 28.063C793.31 27.8507 792.73 26.5521 792.19 25.3336L792.16 25.2721C791.77 24.3702 791.4 23.5233 790.89 23.2081C790.03 22.4001 789.17 22.5633 788.36 22.7172C788.05 22.7764 787.74 22.8347 787.45 22.8347C785.96 22.8347 784.17 22.4612 783.27 19.847C781.06 14.0718 778.37 14.712 775.44 15.4111L775.43 15.4138C774 15.7536 772.53 16.1051 771.01 15.7391C770.21 18.7284 768.95 20.2289 767.64 21.7728C766.5 23.122 765.34 24.5044 764.43 26.9427C763.38 26.1958 762.49 25.4489 761.74 24.702C760.25 25.0754 759.5 26.9427 758.75 29.1834C756.21 26.5692 752.02 23.2081 749.48 21.7143C748.99 21.4181 748.53 21.117 748.08 20.8264L747.88 20.6971C744.5 18.494 742.27 17.0382 739.02 23.2081C736.62 27.6896 733.78 29.1834 730.94 29.5569C726.61 29.9303 722.57 32.1711 718.54 34.7853C716.3 36.3081 714.06 35.5886 711.78 34.854C710.71 34.5077 709.62 34.158 708.52 34.0383C708.02 33.9311 707.53 33.7931 707.04 33.653L706.91 33.6169C704.02 32.7925 701.18 31.9822 698.65 37.026C697.45 36.332 697.16 34.2052 696.87 31.9768L696.86 31.9324C696.69 30.5772 696.5 29.1878 696.11 28.063C694.91 26.5695 693.27 24.7027 691.63 22.8358C688.63 24.7063 685.72 23.1341 682.76 21.5416L682.75 21.5367C681.58 20.9052 680.4 20.2709 679.22 19.847C678.06 21.5561 676.82 22.8486 675.6 24.1319L675.56 24.1704L675.52 24.2109C673.29 26.5464 671.07 28.879 669.35 33.6649C667.94 34.1917 666.54 34.636 665.15 35.0754C663.58 35.5703 662.03 36.059 660.53 36.6525C659.18 37.3994 657.84 37.3994 656.49 36.2791C655.15 35.1587 653.65 34.7853 652.61 37.026C649.77 42.6278 646.93 41.5075 643.79 38.1463C643.67 37.9976 643.52 37.9081 643.36 37.807L643.34 37.7949C643.09 37.6447 642.79 37.4635 642.44 37.026C639.9 39.2667 637.21 38.8933 635.11 32.918C633.04 34.2674 631.46 32.0952 629.81 29.8274V29.8219C628.72 28.3258 627.6 26.7892 626.29 26.1958C624.37 29.1813 622.15 28.9256 619.91 28.6676C617.1 28.3447 614.27 28.0194 611.94 34.0383C610 32.5445 608.06 32.5445 606.26 34.4118C605.54 33.4447 604.83 32.3114 604.13 31.187C601.03 26.2343 598.04 21.4522 594.75 31.7976C593.63 32.6678 592.85 31.1047 592.09 29.6032L592.08 29.5845V29.5779C591.22 27.8667 590.41 26.2537 589.22 28.4365C587.61 22.605 585.26 22.9452 582.97 23.2771C581.01 23.5617 579.09 23.8402 577.71 20.2205C576.95 20.5649 576.44 21.4652 575.92 22.4086L575.91 22.4201C575.3 23.5193 574.65 24.6743 573.52 25.0754C572.74 24.7311 571.89 23.8576 571 22.9428C568.99 20.8813 566.77 18.6102 564.7 21.7143C563.21 23.5816 561.56 23.5816 559.92 22.4612C558.42 21.3408 555.83 21.3408 554.33 21.7143C553.45 23.3607 552.57 24.8054 551.64 26.3449L551.6 26.4083C551.41 26.72 551.22 27.0356 551.02 27.3578C550.88 27.5892 550.74 27.824 550.59 28.063C546.41 26.5692 542.52 28.81 538.78 33.2914C538.63 33.2914 538.48 33.6649 538.48 33.6649C534.56 33.6649 530.63 32.31 526.75 30.9688L526.73 30.9627C524.86 30.3144 522.99 29.6697 521.14 29.1834C520.57 28.7791 520.16 28.2177 519.72 27.622L519.69 27.5871L519.63 27.5003C519.28 27.033 518.914 26.5498 518.451 26.1089C518.198 25.8707 517.953 25.6175 517.714 25.3739L517.695 25.3551C516.392 24.0268 515.273 22.8865 514.03 24.702C512.652 26.5167 511.592 26.9205 510.524 27.3274C509.393 27.7579 508.254 28.192 506.72 30.3038C502.096 21.7143 497.322 19.4736 492.549 20.9674C491.505 21.3408 490.46 22.8347 489.715 25.0754C488.875 27.5597 487.957 26.9148 487.001 26.2431C486.089 25.6021 485.142 24.9368 484.195 26.9427H481.063C480.295 27.904 479.764 27.3806 479.226 26.8502C478.719 26.3504 478.206 25.8445 477.482 26.5692C476.006 27.8017 474.484 27.7914 472.966 27.7811C471.725 27.7727 470.486 27.7643 469.278 28.4365C467.692 28.8946 466.156 30.102 464.609 31.3182L464.608 31.3193C462.371 33.0772 460.111 34.8532 457.643 34.4118C455.396 34.1774 453.266 33.2074 451.143 32.2405C449.884 31.6669 448.627 31.0944 447.35 30.6773L447.287 30.6641C445.521 30.2953 443.9 29.9567 442.278 32.1711C440.786 34.7853 438.847 35.1587 437.206 33.6649C434.819 31.0507 432.731 31.4242 430.941 36.6525H430.344C427.494 35.4116 425.159 31.5936 423.081 28.1957L423.077 28.1889L423.075 28.1848C422.654 27.4961 422.243 26.8247 421.841 26.1958C420.052 26.4757 419.269 29.0643 418.549 31.4441L418.548 31.4472C418.308 32.2409 418.075 33.0113 417.814 33.6649C417.273 34.014 416.733 34.3835 416.194 34.7525L416.191 34.7542C412.113 37.5429 408.076 40.3036 404.388 34.0383C402.738 34.0383 401.899 36.07 401.273 37.5858L401.264 37.6076C401.045 38.1379 400.852 38.6032 400.659 38.8932C397.972 41.1359 395.695 39.8246 393.586 38.61C391.482 37.3975 389.544 36.2813 387.532 38.8932C387.114 37.5845 386.695 36.0924 386.226 34.4168L386.225 34.4135C386.025 33.6994 385.815 32.9519 385.593 32.1711C383.824 33.4108 382.156 32.3829 380.557 31.3974C378.784 30.3049 377.096 29.2644 375.449 31.4242C374.635 31.0168 374.088 29.9429 373.541 28.8689L373.537 28.8615C373.082 27.9688 372.626 27.0771 372.018 26.5692C369.78 27.3161 367.394 26.9427 365.305 22.4612C364.112 23.5816 362.919 24.702 361.874 25.8223C360.499 25.5575 359.199 24.3541 357.928 23.1769C355.613 21.0336 353.392 18.9777 350.985 22.8347C347.465 19.8976 344.055 20.5142 340.655 21.1289C338.434 21.5303 336.218 21.9309 333.979 21.3408C333.729 21.271 333.475 21.1943 333.222 21.1179C330.773 20.3766 328.292 19.6256 326.67 24.702C324.915 25.1204 323.487 23.5459 322.099 22.0147C321.01 20.8129 319.944 19.6378 318.764 19.4736C318.023 19.4736 317.463 20.3841 316.885 21.3256C316.416 22.0894 315.934 22.8736 315.333 23.2081C313.477 22.9401 311.63 22.3088 309.812 21.6873C304.03 19.711 298.541 17.8348 294.001 28.063C292.967 27.8472 292.38 26.508 291.839 25.2722C291.445 24.3702 291.074 23.5233 290.57 23.2081C289.709 22.399 288.847 22.5638 288.041 22.7178L288.039 22.7181C287.73 22.7772 287.429 22.8347 287.14 22.8347C285.648 22.8347 283.858 22.4612 282.963 19.847C280.756 14.0718 278.078 14.712 275.154 15.4111C273.729 15.7516 272.246 16.1061 270.731 15.7391C269.935 18.7273 268.672 20.2278 267.372 21.7711L267.371 21.7728C266.235 23.122 265.071 24.5044 264.167 26.9427C263.123 26.1958 262.228 25.4489 261.482 24.702C259.99 25.0754 259.244 26.9427 258.499 29.1834C255.963 26.5692 251.786 23.2081 249.25 21.7143C248.687 21.3739 248.156 21.0271 247.651 20.6971C244.28 18.4933 242.052 17.0371 238.808 23.2081C236.421 27.6896 233.587 29.1834 230.753 29.5569C226.427 29.9303 222.399 32.1711 218.371 34.7853C216.141 36.3081 213.911 35.5886 211.634 34.854C210.56 34.5078 209.475 34.1579 208.377 34.0383C207.842 33.9219 207.307 33.7692 206.774 33.6169C203.887 32.7925 201.05 31.9822 198.531 37.026C197.322 36.3274 197.041 34.1767 196.748 31.9323L196.745 31.9087C196.568 30.561 196.387 29.1813 195.996 28.063C194.804 26.5714 193.166 24.7074 191.528 22.8429L191.523 22.8375L191.52 22.8347C188.529 24.7069 185.615 23.1312 182.666 21.5373L182.665 21.5367L182.663 21.5355C181.495 20.9044 180.323 20.2706 179.139 19.847C177.974 21.5708 176.733 22.8712 175.498 24.1655L175.493 24.1704C173.25 26.5195 171.024 28.8514 169.294 33.6649C167.893 34.191 166.491 34.6348 165.106 35.0736L165.101 35.0751L165.1 35.0754C163.537 35.5703 161.994 36.059 160.493 36.6525C159.15 37.3994 157.808 37.3994 156.465 36.2791C155.122 35.1587 153.631 34.7853 152.587 37.026C149.752 42.6278 146.918 41.5075 143.785 38.1463C143.662 37.9917 143.513 37.901 143.338 37.7949L143.336 37.7939C143.09 37.644 142.791 37.4626 142.443 37.026C139.907 39.2667 137.222 38.8933 135.133 32.918C133.066 34.2685 131.485 32.0917 129.838 29.8219C128.752 28.3258 127.636 26.7892 126.332 26.1958C124.411 29.1813 122.195 28.9256 119.96 28.6676C117.162 28.3447 114.334 28.0182 112.012 34.0383C110.073 32.5445 108.133 32.5445 106.343 34.4118C105.629 33.4486 104.925 32.3207 104.226 31.2008L104.217 31.1869C101.125 26.2327 98.1398 21.4493 94.8568 31.7976C93.7397 32.6713 92.9498 31.0924 92.1957 29.5854C91.3387 27.8717 90.5278 26.2509 89.3378 28.4365C87.7308 22.605 85.3897 22.9452 83.1047 23.2771C81.1458 23.5617 79.2288 23.8402 77.8517 20.2205C77.0947 20.5649 76.5917 21.4652 76.0648 22.4086C75.4487 23.5113 74.7997 24.6729 73.6747 25.0754C72.8967 24.7318 72.0497 23.8612 71.1608 22.9485L71.1558 22.9428C69.1498 20.8813 66.9398 18.6102 64.8738 21.7143C63.3818 23.5816 61.7407 23.5816 60.0997 22.4612C58.6077 21.3408 57.1168 21.3408 55.6248 21.7143C54.7397 23.3777 53.8528 24.8354 52.9058 26.3927L52.9008 26.4008L52.8987 26.4049L52.8978 26.4066L52.8948 26.4121C52.5698 26.9464 52.2377 27.4926 51.8958 28.063C47.7188 26.5692 43.8398 28.81 40.1108 33.2914C39.9618 33.2914 39.8127 33.6649 39.8127 33.6649C35.8887 33.6649 31.9648 32.3059 28.0878 30.9628C26.2158 30.3144 24.3538 29.6697 22.5088 29.1834C21.9648 28.7942 21.5558 28.2593 21.1348 27.7071L21.1237 27.6925C20.8727 27.3645 20.6187 27.0307 20.3257 26.7179C19.8647 26.3341 19.4308 25.8764 19.0157 25.4381C17.7297 24.0805 16.6208 22.9091 15.3907 24.702Z" fill="#FDFAF3"/>
</g>
<defs>
<clipPath id="clip0_101_3365">
<rect width="2000" height="40" fill="white" transform="matrix(1 0 0 -1 -481 40.9473)"/>
</clipPath>
</defs>
</svg>
