<svg width="1440" height="41" viewBox="0 0 1440 41" fill="none" xmlns="http://www.w3.org/2000/svg">
<path d="M183.292 24.5985C181.911 26.4132 180.849 26.817 179.778 27.2239C178.645 27.6544 177.503 28.0884 175.966 30.2002C171.332 21.6108 166.548 19.37 161.764 20.8638C160.717 21.2373 159.671 22.7311 158.923 24.9718C158.082 27.4561 157.162 26.8113 156.204 26.1396C155.29 25.4986 154.341 24.8332 153.392 26.8391H150.252C149.483 27.8005 148.951 27.277 148.412 26.7467C147.904 26.247 147.39 25.741 146.664 26.4657C145.184 27.6981 143.659 27.6879 142.138 27.6776C140.894 27.6692 139.653 27.6608 138.442 28.333C136.853 28.7911 135.313 29.9984 133.763 31.2147C131.521 32.973 129.255 34.7497 126.781 34.3082C124.53 34.074 122.397 33.1048 120.27 32.1383L120.267 32.137C119.006 31.5634 117.746 30.9909 116.466 30.5738L116.402 30.5605C114.633 30.1918 113.008 29.8532 111.383 32.0676C109.888 34.6818 107.944 35.0552 106.3 33.5613C103.908 30.9471 101.815 31.3206 100.021 36.549H99.4229C96.5649 35.3072 94.2229 31.4849 92.1399 28.0852L92.1179 28.0493C91.7029 27.3718 91.2979 26.7115 90.9009 26.0923C89.1079 26.3722 88.3229 28.9602 87.6009 31.3398C87.3609 32.1343 87.1269 32.9071 86.8649 33.5613C86.3349 33.9029 85.8049 34.264 85.2759 34.625L85.2379 34.6507C81.1519 37.4394 77.1059 40.2001 73.4099 33.9348C71.7559 33.9348 70.9149 35.9665 70.2879 37.4823C70.0649 38.0217 69.8689 38.4957 69.6719 38.7897C66.9799 41.032 64.6989 39.7216 62.5849 38.5072C60.4759 37.2947 58.5329 36.1778 56.5169 38.7897C56.0969 37.4793 55.6769 35.985 55.2059 34.3068C55.0059 33.5936 54.7959 32.8472 54.5729 32.0676C52.8009 33.3073 51.1289 32.2793 49.5269 31.2938C47.7499 30.2012 46.0579 29.1607 44.4069 31.3206C43.5919 30.9132 43.0429 29.8391 42.4949 28.7651L42.4909 28.7573C42.0339 27.8649 41.5779 26.9735 40.9689 26.4657C38.7259 27.2126 36.3339 26.8398 34.2409 22.3584C33.0449 23.4785 31.8489 24.5986 30.8029 25.7188C29.4249 25.454 28.1219 24.2506 26.8479 23.0734L26.8469 23.0721C24.5259 20.9292 22.3009 18.875 19.8889 22.7312C16.3619 19.7941 12.9439 20.4106 9.53687 21.0253L9.53488 21.0258C7.30988 21.4271 5.08989 21.8273 2.84589 21.2373C2.60189 21.1695 2.35687 21.0956 2.11087 21.0213L2.08688 21.014L2.08588 21.0139C-0.368124 20.2726 -2.85313 19.5221 -4.47913 24.5985C-6.23713 25.0167 -7.66613 23.4443 -9.05713 21.9139L-9.06012 21.9111L-9.06311 21.9083C-10.1541 20.7075 -11.2201 19.5341 -12.4021 19.37C-13.1451 19.37 -13.7061 20.2807 -14.2851 21.2221L-14.2901 21.231C-14.7601 21.992 -15.2401 22.7713 -15.8411 23.1046C-17.7011 22.8366 -19.5521 22.2053 -21.3741 21.5839C-27.1681 19.6076 -32.6701 17.7313 -37.2191 27.9595C-38.2561 27.7437 -38.8441 26.4045 -39.3861 25.1686C-39.7811 24.2667 -40.1531 23.4197 -40.6571 23.1046C-41.5211 22.2955 -42.3851 22.4602 -43.1921 22.6142L-43.1941 22.6146C-43.5041 22.6737 -43.8061 22.7312 -44.0961 22.7312C-45.5911 22.7312 -47.3851 22.3577 -48.2821 19.7435C-50.4931 13.9683 -53.1781 14.6085 -56.1081 15.3075C-57.5361 15.6481 -59.0221 16.0026 -60.5411 15.6356C-61.3391 18.6238 -62.6041 20.1242 -63.9061 21.6676L-63.9071 21.6693C-65.0461 23.0185 -66.2121 24.4008 -67.1191 26.8391C-68.1651 26.0922 -69.0621 25.3454 -69.8101 24.5985C-71.3051 24.9719 -72.0521 26.8391 -72.8001 29.0799C-75.3411 26.4657 -79.5271 23.1046 -82.0691 21.6108C-82.6331 21.2703 -83.1651 20.9236 -83.6711 20.5936C-87.0501 18.3895 -89.2831 16.933 -92.5341 23.1046C-94.9261 27.5861 -97.7661 29.0799 -100.607 29.4534C-104.942 29.8268 -108.978 32.0676 -113.015 34.6818C-115.25 36.2045 -117.485 35.4851 -119.767 34.7505C-120.843 34.4042 -121.93 34.0545 -123.031 33.9348C-123.564 33.819 -124.097 33.6672 -124.629 33.5158L-124.638 33.5134C-127.531 32.6889 -130.374 31.8787 -132.898 36.9225C-134.11 36.2239 -134.392 34.0733 -134.686 31.8289L-134.687 31.8209C-134.865 30.4682 -135.047 29.0821 -135.44 27.9595C-136.636 26.4657 -138.28 24.5985 -139.925 22.7312C-142.923 24.6036 -145.845 23.0273 -148.799 21.4332L-148.81 21.4272C-149.977 20.7976 -151.149 20.166 -152.333 19.7435C-153.502 21.4696 -154.747 22.7708 -155.987 24.0668C-158.235 26.416 -160.466 28.7478 -162.2 33.5613C-163.606 34.0882 -165.012 34.5325 -166.403 34.9719L-166.413 34.9751C-167.976 35.4689 -169.519 35.9568 -171.02 36.549C-172.366 37.2959 -173.712 37.2959 -175.057 36.1756C-176.402 35.0552 -177.897 34.6818 -178.944 36.9225C-181.784 42.5243 -184.625 41.4039 -187.764 38.0428C-187.887 37.8889 -188.037 37.7984 -188.211 37.6928L-188.213 37.6914C-188.461 37.5412 -188.76 37.36 -189.11 36.9225C-191.651 39.1632 -194.342 38.7897 -196.435 32.8145C-198.507 34.1645 -200.09 31.9901 -201.741 29.7213L-201.743 29.7184C-202.831 28.2222 -203.949 26.6857 -205.256 26.0923C-207.181 29.0778 -209.402 28.822 -211.642 28.564C-214.446 28.2411 -217.281 27.9146 -219.608 33.9348C-221.551 32.441 -223.495 32.441 -225.289 34.3082C-226.007 33.3419 -226.715 32.2098 -227.418 31.0862L-227.42 31.0834C-230.518 26.129 -233.51 21.3453 -236.8 31.6941C-237.919 32.5679 -238.711 30.9882 -239.467 29.481C-240.326 27.7674 -241.138 26.1474 -242.332 28.333C-243.942 22.5014 -246.288 22.8417 -248.578 23.1736C-250.542 23.4582 -252.463 23.7367 -253.843 20.117C-254.601 20.4614 -255.105 21.3616 -255.633 22.305C-256.251 23.4076 -256.901 24.5694 -258.029 24.9718C-258.81 24.6276 -259.661 23.7543 -260.553 22.8398C-262.563 20.7782 -264.778 18.5066 -266.849 21.6108C-268.344 23.478 -269.989 23.478 -271.633 22.3577C-273.128 21.2373 -275.724 21.2373 -277.219 21.6108C-278.11 23.2791 -279 24.7405 -279.952 26.3031C-280.279 26.8387 -280.613 27.3878 -280.956 27.9595C-285.142 26.4657 -289.029 28.7064 -292.767 33.1879C-292.916 33.1879 -293.066 33.5613 -293.066 33.5613C-296.998 33.5613 -300.931 32.2024 -304.817 30.8592L-304.818 30.8589C-306.694 30.2107 -308.559 29.5661 -310.408 29.0799C-310.814 28.79 -311.175 28.4757 -311.517 28.1777C-312.057 27.708 -312.55 27.2791 -313.099 27.0506L-313.099 0.84375H1686.9V27.0505C1686.23 26.6282 1685.62 25.9892 1685.04 25.3813L1685 25.3346C1683.72 23.9767 1682.61 22.8054 1681.38 24.5985C1680 26.4132 1678.94 26.817 1677.87 27.2239C1676.74 27.6544 1675.6 28.0884 1674.07 30.2002C1669.45 21.6108 1664.67 19.37 1659.9 20.8638C1658.86 21.2373 1657.81 22.7311 1657.07 24.9718C1656.23 27.4553 1655.31 26.8117 1654.35 26.1402C1653.44 25.4992 1652.49 24.8332 1651.55 26.8391H1648.41C1647.65 27.8005 1647.11 27.277 1646.58 26.7467L1646.57 26.7404C1646.07 26.2427 1645.56 25.744 1644.83 26.4657C1643.36 27.6981 1641.83 27.6879 1640.32 27.6776C1639.08 27.6692 1637.84 27.6608 1636.63 28.333C1635.05 28.7871 1633.54 29.9777 1632 31.1832L1631.95 31.2207C1629.71 32.977 1627.46 34.7492 1624.99 34.3082C1622.76 34.0748 1620.64 33.1115 1618.52 32.1484L1618.49 32.137C1617.24 31.5634 1615.98 30.9909 1614.7 30.5738L1614.64 30.5606C1612.87 30.1921 1611.25 29.8543 1609.63 32.0676C1608.14 34.6818 1606.2 35.0552 1604.56 33.5613C1602.17 30.9471 1600.08 31.3206 1598.29 36.549H1597.7C1594.85 35.3122 1592.53 31.5153 1590.45 28.1259L1590.43 28.0851L1590.42 28.0738C1590 27.3877 1589.59 26.719 1589.19 26.0923C1587.4 26.3716 1586.62 28.9518 1585.9 31.3275V31.3427L1585.87 31.4327C1585.64 32.1949 1585.42 32.9322 1585.16 33.5613C1584.63 33.9013 1584.11 34.2605 1583.59 34.6199L1583.54 34.6506L1583.53 34.6565C1579.45 37.4432 1575.43 40.1958 1571.74 33.9348C1570.09 33.9348 1569.25 35.9557 1568.63 37.4702L1568.6 37.5439C1568.39 38.0576 1568.2 38.5069 1568.01 38.7897C1565.32 41.0297 1563.06 39.7242 1560.95 38.5109L1560.94 38.5065C1558.83 37.2944 1556.89 36.1787 1554.88 38.7897C1554.47 37.4826 1554.05 35.9924 1553.58 34.3193V34.3082C1553.38 33.5946 1553.17 32.8477 1552.94 32.0676C1551.18 33.3073 1549.51 32.2793 1547.91 31.2938C1546.14 30.2012 1544.45 29.1607 1542.8 31.3206C1541.99 30.9133 1541.44 29.8396 1540.89 28.7657C1540.44 27.8707 1539.98 26.9749 1539.37 26.4657C1537.13 27.2126 1534.74 26.8391 1532.66 22.3577C1531.46 23.478 1530.27 24.5984 1529.23 25.7188C1527.85 25.454 1526.55 24.2503 1525.28 23.0734L1525.27 23.0683C1522.96 20.9268 1520.74 18.8773 1518.34 22.7312C1514.82 19.7941 1511.41 20.4106 1508.01 21.0254C1505.79 21.4268 1503.57 21.8275 1501.33 21.2373C1501.16 21.1899 1500.99 21.1393 1500.82 21.0877L1500.57 21.0139C1498.12 20.2726 1495.64 19.5221 1494.02 24.5985C1492.27 25.0169 1490.84 23.4424 1489.45 21.9111L1489.43 21.8919C1488.35 20.6969 1487.29 19.5334 1486.11 19.37C1485.37 19.37 1484.81 20.2807 1484.24 21.2221L1484.23 21.236C1483.76 21.9954 1483.29 22.7721 1482.68 23.1046C1480.83 22.8366 1478.98 22.2053 1477.16 21.5838C1471.38 19.6075 1465.89 17.7314 1461.35 27.9595C1460.32 27.7437 1459.73 26.4045 1459.19 25.1686C1458.8 24.2667 1458.43 23.4197 1457.92 23.1046C1457.06 22.2965 1456.2 22.4598 1455.39 22.6137L1455.38 22.6153C1455.08 22.6742 1454.78 22.7312 1454.49 22.7312C1453 22.7312 1451.21 22.3577 1450.31 19.7435C1448.11 13.9691 1445.43 14.6084 1442.5 15.3073C1441.08 15.6478 1439.6 16.0026 1438.08 15.6356C1437.29 18.6137 1436.03 20.1141 1434.73 21.6519L1434.72 21.6693L1434.68 21.7115C1433.57 23.0475 1432.41 24.4263 1431.52 26.8391C1430.47 26.0922 1429.58 25.3454 1428.83 24.5985C1427.34 24.9719 1426.6 26.8391 1425.85 29.0799C1423.31 26.4657 1419.14 23.1046 1416.6 21.6108C1416.11 21.3145 1415.65 21.0135 1415.2 20.7229L1415 20.5936C1411.63 18.3895 1409.4 16.933 1406.16 23.1046C1403.77 27.5861 1400.94 29.0799 1398.1 29.4534C1393.78 29.8268 1389.75 32.0676 1385.72 34.6818C1383.49 36.2039 1381.26 35.4857 1378.98 34.7515C1377.91 34.4052 1376.83 34.0544 1375.73 33.9348C1375.23 33.8275 1374.74 33.6894 1374.25 33.5493L1374.12 33.5134C1371.24 32.6889 1368.4 31.8787 1365.88 36.9225C1364.67 36.2239 1364.39 34.0734 1364.1 31.8289L1364.09 31.7528C1363.91 30.4219 1363.73 29.0633 1363.35 27.9595C1362.15 26.4673 1360.52 24.6022 1358.88 22.7368L1358.87 22.7312C1355.88 24.6036 1352.96 23.027 1350.02 21.4329L1349.98 21.4095C1348.82 20.7859 1347.67 20.1621 1346.49 19.7435C1345.32 21.4696 1344.08 22.7708 1342.84 24.0668C1340.6 26.4159 1338.38 28.7478 1336.64 33.5613C1335.24 34.0882 1333.84 34.5325 1332.45 34.9719C1330.89 35.4668 1329.35 35.9555 1327.84 36.549C1326.5 37.2959 1325.16 37.2959 1323.82 36.1756C1322.47 35.0552 1320.98 34.6818 1319.94 36.9225C1317.1 42.5243 1314.27 41.4039 1311.14 38.0428C1311.01 37.894 1310.87 37.8044 1310.71 37.7033L1310.69 37.6914C1310.44 37.5412 1310.14 37.36 1309.79 36.9225C1307.26 39.1632 1304.57 38.7897 1302.48 32.8145C1300.42 34.1639 1298.84 31.9919 1297.19 29.7241V29.7183L1297.16 29.6713C1296.08 28.1901 1294.98 26.6795 1293.68 26.0923C1291.76 29.0768 1289.55 28.8223 1287.31 28.5643C1284.51 28.2414 1281.68 27.9146 1279.36 33.9348C1277.42 32.441 1275.48 32.441 1273.69 34.3082C1272.98 33.3411 1272.27 32.2078 1271.57 31.0833C1268.48 26.1289 1265.49 21.3454 1262.21 31.6941C1261.09 32.5679 1260.3 30.9882 1259.55 29.481V29.4744C1258.69 27.7632 1257.88 26.1502 1256.69 28.333C1255.08 22.5014 1252.74 22.8417 1250.46 23.1736C1248.5 23.4582 1246.58 23.7367 1245.2 20.117C1244.45 20.4614 1243.94 21.3616 1243.42 22.3051L1243.41 22.3167C1242.8 23.4159 1242.15 24.5708 1241.03 24.9718C1240.25 24.6275 1239.4 23.7541 1238.51 22.8393L1238.5 22.8342C1236.5 20.774 1234.29 18.5092 1232.22 21.6108C1230.73 23.478 1229.09 23.478 1227.45 22.3577C1225.96 21.2373 1224.47 21.2373 1222.98 21.6108C1222.09 23.2719 1221.21 24.7296 1220.26 26.2846L1220.25 26.3031L1220.23 26.327L1220.06 26.6008C1219.8 27.042 1219.52 27.4927 1219.25 27.9595C1215.07 26.4657 1211.19 28.7064 1207.46 33.1879C1207.31 33.1879 1207.16 33.5613 1207.16 33.5613C1203.25 33.5613 1199.33 32.2064 1195.46 30.8651L1195.44 30.8593C1193.57 30.2109 1191.71 29.5662 1189.86 29.0799C1189.32 28.6907 1188.91 28.1562 1188.49 27.604L1188.41 27.5058C1188.18 27.2048 1187.94 26.9007 1187.68 26.6142C1187.22 26.2305 1186.78 25.7728 1186.37 25.3345C1185.08 23.9784 1183.97 22.8071 1182.74 24.5985C1181.36 26.4132 1180.3 26.817 1179.23 27.2239L1179.22 27.2273C1178.09 27.6567 1176.95 28.094 1175.42 30.2002C1170.78 21.6108 1166 19.37 1161.21 20.8638C1160.17 21.2373 1159.12 22.7311 1158.37 24.9718C1157.53 27.4553 1156.61 26.8117 1155.65 26.1403C1154.74 25.4993 1153.79 24.8332 1152.84 26.8391H1149.7C1148.93 27.7988 1148.4 27.2788 1147.86 26.7494L1147.85 26.7404C1147.35 26.2427 1146.84 25.744 1146.11 26.4657C1144.63 27.6981 1143.11 27.6879 1141.59 27.6776C1140.34 27.6692 1139.1 27.6608 1137.89 28.333C1136.3 28.7911 1134.76 29.9985 1133.21 31.2147L1133.2 31.2208C1130.96 32.9771 1128.71 34.7492 1126.23 34.3082C1123.98 34.0738 1121.84 33.1039 1119.72 32.137C1118.46 31.5634 1117.2 30.9909 1115.92 30.5738L1115.85 30.5605C1114.08 30.192 1112.46 29.8543 1110.83 32.0676C1109.34 34.6818 1107.39 35.0552 1105.75 33.5613C1103.36 30.9471 1101.26 31.3206 1099.47 36.549H1098.87C1096.01 35.3073 1093.67 31.4854 1091.59 28.0858C1091.17 27.3955 1090.76 26.7226 1090.35 26.0923C1088.56 26.3723 1087.77 28.9613 1087.05 31.3414L1087.02 31.4317C1086.79 32.1942 1086.57 32.9319 1086.31 33.5613C1085.79 33.9013 1085.26 34.2605 1084.74 34.6199L1084.69 34.6506L1084.68 34.6564C1080.59 37.4431 1076.56 40.1958 1072.86 33.9348C1071.21 33.9348 1070.37 35.9557 1069.75 37.4702L1069.74 37.4824L1069.66 37.6806C1069.46 38.137 1069.3 38.5323 1069.12 38.7897C1066.43 41.0295 1064.16 39.7245 1062.04 38.5113L1062.03 38.5064C1059.93 37.294 1057.98 36.1778 1055.97 38.7897C1055.55 37.4799 1055.13 35.9864 1054.66 34.3091C1054.46 33.5952 1054.25 32.848 1054.02 32.0676C1052.25 33.3073 1050.58 32.2793 1048.98 31.2938L1048.97 31.2906C1047.2 30.1992 1045.51 29.1628 1043.86 31.3206C1043.04 30.9133 1042.49 29.8395 1041.94 28.7656C1041.49 27.8706 1041.03 26.9749 1040.42 26.4657C1038.18 27.2126 1035.78 26.8391 1033.69 22.3577L1033.46 22.5698C1032.35 23.6195 1031.23 24.6691 1030.25 25.7188C1028.87 25.454 1027.57 24.2506 1026.3 23.0734C1023.98 20.9301 1021.75 18.8742 1019.34 22.7312C1015.81 19.7941 1012.39 20.4106 1008.99 21.0254L1008.98 21.0267C1006.76 21.4277 1004.54 21.8268 1002.3 21.2373C1002.04 21.1673 1001.79 21.0906 1001.54 21.0139C999.081 20.273 996.601 19.5249 994.971 24.5985C993.211 25.0169 991.781 23.4424 990.391 21.9111C989.301 20.7093 988.231 19.5342 987.051 19.37C986.301 19.37 985.741 20.2785 985.161 21.2187L985.151 21.2357C984.681 21.9952 984.211 22.772 983.611 23.1046C981.751 22.8366 979.901 22.2053 978.081 21.5838C972.281 19.6079 966.781 17.7332 962.231 27.9595C961.211 27.7472 960.631 26.4485 960.091 25.2301L960.061 25.1685C959.671 24.2666 959.301 23.4197 958.791 23.1046C957.931 22.2965 957.071 22.4598 956.261 22.6137C955.951 22.6729 955.641 22.7312 955.351 22.7312C953.861 22.7312 952.071 22.3577 951.171 19.7435C948.961 13.9683 946.271 14.6085 943.341 15.3075L943.331 15.3103C941.901 15.6501 940.431 16.0016 938.911 15.6356C938.111 18.6249 936.851 20.1254 935.541 21.6693C934.401 23.0185 933.241 24.4008 932.331 26.8391C931.281 26.0922 930.391 25.3454 929.641 24.5985C928.151 24.9719 927.401 26.8391 926.651 29.0799C924.111 26.4657 919.921 23.1046 917.381 21.6108C916.891 21.3145 916.431 21.0135 915.981 20.7229L915.781 20.5936C912.401 18.3905 910.171 16.9347 906.921 23.1046C904.521 27.5861 901.681 29.0799 898.841 29.4534C894.511 29.8268 890.471 32.0676 886.441 34.6818C884.201 36.2045 881.961 35.4851 879.681 34.7505C878.611 34.4042 877.521 34.0545 876.421 33.9348C875.921 33.8276 875.431 33.6895 874.941 33.5494L874.811 33.5134C871.921 32.689 869.081 31.8787 866.551 36.9225C865.351 36.2285 865.061 34.1016 864.771 31.8732L864.761 31.8289C864.591 30.4737 864.401 29.0843 864.011 27.9595C862.811 26.466 861.171 24.5992 859.531 22.7323C856.531 24.6028 853.621 23.0306 850.661 21.4381L850.651 21.4332C849.481 20.8017 848.301 20.1674 847.121 19.7435C845.961 21.4526 844.721 22.7451 843.501 24.0284L843.461 24.0669L843.421 24.1074C841.191 26.4429 838.971 28.7755 837.251 33.5613C835.841 34.0882 834.441 34.5325 833.051 34.9719C831.481 35.4668 829.931 35.9555 828.431 36.549C827.081 37.2959 825.741 37.2959 824.391 36.1756C823.051 35.0552 821.551 34.6818 820.511 36.9225C817.671 42.5243 814.831 41.4039 811.691 38.0428C811.571 37.8941 811.421 37.8046 811.261 37.7035L811.241 37.6913C810.991 37.5412 810.691 37.36 810.341 36.9225C807.801 39.1632 805.111 38.7897 803.011 32.8145C800.941 34.1639 799.361 31.9917 797.711 29.7239V29.7183C796.621 28.2222 795.501 26.6857 794.191 26.0923C792.271 29.0778 790.051 28.822 787.811 28.564C785.001 28.2412 782.171 27.9159 779.841 33.9348C777.901 32.441 775.961 32.441 774.161 34.3082C773.441 33.3411 772.731 32.2079 772.031 31.0835C768.931 26.1307 765.941 21.3487 762.651 31.6941C761.531 32.5643 760.751 31.0012 759.991 29.4996L759.981 29.481V29.4744C759.121 27.7632 758.311 26.1501 757.121 28.333C755.511 22.5014 753.161 22.8417 750.871 23.1736C748.911 23.4582 746.991 23.7367 745.611 20.117C744.851 20.4614 744.341 21.3616 743.821 22.3051L743.811 22.3165C743.201 23.4157 742.551 24.5707 741.421 24.9718C740.641 24.6275 739.791 23.7541 738.901 22.8393C736.891 20.7778 734.671 18.5066 732.601 21.6108C731.111 23.478 729.461 23.478 727.821 22.3577C726.321 21.2373 723.731 21.2373 722.231 21.6108C721.351 23.2571 720.471 24.7019 719.541 26.2413L719.501 26.3048C719.311 26.6165 719.121 26.9321 718.921 27.2542C718.781 27.4857 718.641 27.7205 718.491 27.9595C714.311 26.4657 710.421 28.7064 706.681 33.1879C706.531 33.1879 706.381 33.5613 706.381 33.5613C702.461 33.5613 698.531 32.2065 694.651 30.8652L694.631 30.8592C692.761 30.2109 690.891 29.5662 689.041 29.0799C688.471 28.6755 688.061 28.1142 687.621 27.5185L687.591 27.4836L687.531 27.3968C687.181 26.9295 686.815 26.4463 686.352 26.0054C686.099 25.7672 685.854 25.5139 685.615 25.2704L685.596 25.2516C684.293 23.9233 683.174 22.783 681.931 24.5985C680.553 26.4132 679.493 26.817 678.425 27.2239C677.294 27.6544 676.155 28.0884 674.621 30.2002C669.997 21.6108 665.223 19.37 660.45 20.8638C659.406 21.2373 658.361 22.7311 657.616 24.9718C656.776 27.4561 655.858 26.8113 654.902 26.1396C653.99 25.4986 653.043 24.8332 652.096 26.8391H648.964C648.196 27.8005 647.665 27.277 647.127 26.7467C646.62 26.2469 646.107 25.7409 645.383 26.4657C643.907 27.6981 642.385 27.6879 640.867 27.6776C639.626 27.6692 638.387 27.6608 637.179 28.333C635.593 28.7911 634.057 29.9985 632.51 31.2147L632.509 31.2158C630.272 32.9736 628.012 34.7497 625.544 34.3082C623.297 34.0738 621.167 33.1039 619.044 32.137C617.785 31.5634 616.528 30.9909 615.251 30.5738L615.188 30.5606C613.422 30.1918 611.801 29.8532 610.179 32.0676C608.687 34.6818 606.748 35.0552 605.107 33.5613C602.72 30.9471 600.632 31.3206 598.842 36.549H598.245C595.395 35.3081 593.06 31.4901 590.982 28.0922L590.978 28.0853L590.976 28.0812C590.555 27.3925 590.144 26.7212 589.742 26.0923C587.953 26.3722 587.17 28.9608 586.45 31.3405L586.449 31.3437C586.209 32.1374 585.976 32.9077 585.715 33.5613C585.174 33.9104 584.634 34.2799 584.095 34.649L584.092 34.6507C580.014 37.4394 575.977 40.2001 572.289 33.9348C570.639 33.9348 569.8 35.9665 569.174 37.4823L569.165 37.5041C568.946 38.0344 568.753 38.4997 568.56 38.7897C565.873 41.0324 563.596 39.7211 561.487 38.5065C559.383 37.294 557.445 36.1778 555.433 38.7897C555.015 37.481 554.596 35.9889 554.127 34.3133L554.126 34.31C553.926 33.5958 553.716 32.8484 553.494 32.0676C551.725 33.3073 550.057 32.2793 548.458 31.2938C546.685 30.2013 544.997 29.1609 543.35 31.3206C542.536 30.9132 541.989 29.8394 541.442 28.7654L541.438 28.758C540.983 27.8653 540.527 26.9736 539.919 26.4657C537.681 27.2126 535.295 26.8391 533.206 22.3577C532.013 23.478 530.82 24.5984 529.775 25.7188C528.4 25.454 527.1 24.2506 525.829 23.0734C523.514 20.9301 521.293 18.8742 518.886 22.7312C515.366 19.7941 511.956 20.4106 508.556 21.0253C506.335 21.4267 504.119 21.8274 501.88 21.2373C501.63 21.1675 501.376 21.0908 501.123 21.0144C498.674 20.2731 496.193 19.5221 494.571 24.5985C492.816 25.0169 491.388 23.4424 490 21.9111C488.911 20.7093 487.845 19.5342 486.665 19.37C485.924 19.37 485.364 20.2806 484.786 21.222C484.317 21.9859 483.835 22.77 483.234 23.1046C481.378 22.8366 479.531 22.2053 477.713 21.5838C471.931 19.6075 466.442 17.7313 461.902 27.9595C460.868 27.7437 460.281 26.4045 459.74 25.1686C459.346 24.2667 458.975 23.4197 458.471 23.1046C457.61 22.2955 456.748 22.4602 455.942 22.6142L455.94 22.6146C455.631 22.6737 455.33 22.7312 455.041 22.7312C453.549 22.7312 451.759 22.3577 450.864 19.7435C448.657 13.9683 445.979 14.6085 443.055 15.3075C441.63 15.6481 440.147 16.0026 438.632 15.6356C437.836 18.6238 436.573 20.1243 435.273 21.6676L435.272 21.6693C434.136 23.0185 432.972 24.4009 432.068 26.8391C431.024 26.0922 430.129 25.3454 429.383 24.5985C427.891 24.9719 427.145 26.8391 426.4 29.0799C423.864 26.4657 419.687 23.1046 417.151 21.6108C416.588 21.2703 416.057 20.9236 415.552 20.5936C412.181 18.3898 409.953 16.9336 406.709 23.1046C404.322 27.5861 401.488 29.0799 398.654 29.4534C394.328 29.8268 390.3 32.0676 386.272 34.6818C384.042 36.2045 381.812 35.485 379.535 34.7505C378.461 34.4043 377.376 34.0544 376.278 33.9348C375.743 33.8184 375.208 33.6657 374.675 33.5134C371.788 32.689 368.951 31.8787 366.432 36.9225C365.223 36.2239 364.942 34.0732 364.649 31.8288L364.646 31.8052C364.469 30.4575 364.288 29.0778 363.897 27.9595C362.705 26.4679 361.067 24.6039 359.429 22.7394L359.424 22.734L359.421 22.7312C356.43 24.6034 353.516 23.0277 350.567 21.4338L350.566 21.4332L350.564 21.432C349.396 20.8009 348.224 20.1671 347.04 19.7435C345.875 21.4673 344.634 22.7677 343.399 24.062L343.394 24.0668C341.151 26.416 338.925 28.7478 337.195 33.5613C335.794 34.0875 334.392 34.5313 333.007 34.9701L333.002 34.9716L333.001 34.9719C331.438 35.4668 329.895 35.9555 328.394 36.549C327.051 37.2959 325.709 37.2959 324.366 36.1756C323.023 35.0552 321.532 34.6818 320.488 36.9225C317.653 42.5243 314.819 41.4039 311.686 38.0428C311.563 37.8881 311.414 37.7975 311.239 37.6914L311.237 37.6904C310.991 37.5405 310.692 37.3591 310.344 36.9225C307.808 39.1632 305.123 38.7897 303.034 32.8145C300.967 34.165 299.386 31.9882 297.739 29.7184C296.653 28.2222 295.537 26.6857 294.233 26.0923C292.312 29.0778 290.096 28.822 287.861 28.564C285.063 28.2411 282.235 27.9146 279.913 33.9348C277.974 32.441 276.034 32.441 274.244 34.3082C273.53 33.3451 272.826 32.2171 272.127 31.0972L272.118 31.0834C269.026 26.1292 266.041 21.3458 262.758 31.6941C261.641 32.5678 260.851 30.9888 260.097 29.4818C259.24 27.7682 258.429 26.1473 257.239 28.333C255.632 22.5014 253.291 22.8417 251.006 23.1736C249.047 23.4582 247.13 23.7367 245.753 20.117C244.996 20.4614 244.493 21.3616 243.966 22.3051C243.35 23.4077 242.701 24.5693 241.576 24.9718C240.798 24.6282 239.951 23.7577 239.062 22.845L239.057 22.8393C237.051 20.7778 234.841 18.5066 232.775 21.6108C231.283 23.478 229.642 23.478 228.001 22.3577C226.509 21.2373 225.018 21.2373 223.526 21.6108C222.641 23.2742 221.754 24.7319 220.807 26.2892L220.802 26.2973L220.8 26.3014L220.799 26.3031L220.796 26.3085C220.471 26.8429 220.139 27.3891 219.797 27.9595C215.62 26.4657 211.741 28.7064 208.012 33.1879C207.863 33.1879 207.714 33.5613 207.714 33.5613C203.79 33.5613 199.866 32.2024 195.989 30.8593C194.117 30.2109 192.255 29.5662 190.41 29.0799C189.866 28.6907 189.457 28.1557 189.036 27.6035L189.025 27.589C188.774 27.261 188.52 26.9272 188.227 26.6143C187.766 26.2306 187.332 25.7728 186.917 25.3345C185.631 23.977 184.522 22.8056 183.292 24.5985Z" fill="#CFFDE1"/>
</svg>
